<svg id="svg" version="1.1" width="400" height="89.69696969696969" xmlns="http://www.w3.org/2000/svg" xmlns:xlink="http://www.w3.org/1999/xlink" style="display: block;"><g id="svgg"><path id="path0" d="" stroke="none" fill="#000000" fill-rule="evenodd"></path><path id="path1" d="M108.880 32.152 C 107.066 32.300,106.747 32.715,108.150 33.105 C 109.306 33.427,109.352 33.482,109.732 34.974 C 110.144 36.595,110.234 36.682,110.650 35.867 C 111.175 34.838,110.818 31.867,110.189 32.027 C 110.131 32.042,109.542 32.098,108.880 32.152 M42.705 32.432 C 41.947 32.559,41.012 32.824,40.626 33.021 C 39.836 33.424,38.020 33.389,36.109 32.935 L 35.134 32.703 34.862 33.310 C 34.570 33.962,34.548 34.947,34.682 41.333 C 34.749 44.537,34.442 46.708,33.873 47.059 C 33.692 47.170,33.924 49.762,34.219 50.917 C 34.359 51.467,34.546 52.824,34.634 53.932 C 34.879 57.027,34.465 56.833,40.850 56.833 L 44.987 56.833 45.146 56.208 C 45.284 55.666,45.555 46.231,45.528 42.917 C 45.489 38.198,45.276 32.552,45.131 32.375 C 44.922 32.122,44.493 32.132,42.705 32.432 M71.917 32.437 C 71.183 32.565,70.311 32.820,69.977 33.002 C 69.531 33.246,69.055 33.333,68.170 33.333 C 65.593 33.333,65.253 33.914,65.241 38.327 C 65.213 49.269,65.126 53.241,64.899 53.882 C 64.618 54.680,64.849 55.293,65.765 56.182 L 66.351 56.750 70.166 56.800 L 73.981 56.851 74.282 56.391 C 74.549 55.984,74.596 55.352,74.695 50.841 C 74.757 48.041,74.859 45.506,74.922 45.208 C 74.986 44.910,74.951 43.822,74.845 42.791 C 74.739 41.760,74.626 39.059,74.593 36.788 C 74.520 31.645,74.706 31.948,71.917 32.437 M83.167 32.282 C 83.029 32.336,82.732 32.450,82.506 32.533 C 82.088 32.688,82.337 32.927,83.613 33.591 C 83.863 33.721,85.333 33.078,85.333 32.839 C 85.333 32.505,83.676 32.079,83.167 32.282 M97.083 32.484 C 96.533 32.641,95.896 32.878,95.667 33.009 C 95.362 33.185,94.660 33.249,93.051 33.250 L 90.852 33.250 90.676 33.949 C 90.573 34.359,90.496 36.765,90.490 39.782 C 90.485 42.606,90.420 47.200,90.346 49.990 C 90.152 57.309,89.782 56.732,94.714 56.805 L 98.417 56.859 99.097 56.366 C 100.255 55.525,100.333 55.194,100.333 51.152 C 100.333 47.953,100.479 46.207,100.825 45.250 C 100.962 44.872,100.663 42.418,100.297 40.917 C 100.117 40.178,100.088 39.567,100.186 38.576 C 100.261 37.811,100.247 36.560,100.152 35.660 C 99.928 33.527,99.921 33.294,100.068 32.969 C 100.170 32.742,100.069 32.656,99.556 32.527 C 98.279 32.207,98.067 32.203,97.083 32.484 M138.333 32.259 C 138.196 32.288,137.724 32.359,137.285 32.417 C 136.754 32.487,136.306 32.679,135.951 32.989 C 135.234 33.615,134.327 34.057,132.878 34.487 C 131.997 34.749,131.594 34.964,131.378 35.285 C 131.216 35.526,130.727 36.090,130.292 36.538 C 129.335 37.522,129.325 37.607,130.140 37.826 C 130.894 38.029,131.265 38.395,131.418 39.083 C 131.720 40.441,132.052 41.181,132.502 41.502 C 133.423 42.157,133.872 43.440,134.009 45.807 C 134.171 48.600,134.377 49.367,135.121 49.934 C 135.947 50.564,136.283 51.462,136.476 53.553 C 136.737 56.390,137.322 56.725,142.333 56.901 C 143.938 56.957,145.954 57.048,146.815 57.102 C 148.584 57.215,150.883 57.049,150.741 56.819 C 150.689 56.735,150.258 56.666,149.782 56.666 C 148.121 56.665,147.754 56.243,147.243 53.750 C 146.962 52.374,146.878 52.195,146.234 51.583 C 145.302 50.699,145.061 50.160,144.927 48.667 C 144.686 45.990,144.368 44.864,143.675 44.238 C 143.004 43.631,142.500 42.307,142.500 41.149 C 142.500 39.939,142.025 38.660,141.260 37.809 C 140.486 36.948,139.841 34.960,139.828 33.396 C 139.819 32.355,139.395 32.032,138.333 32.259 M202.705 32.432 C 201.947 32.559,201.019 32.820,200.641 33.013 C 199.915 33.383,198.149 33.355,197.167 32.957 C 196.444 32.664,195.264 32.524,195.042 32.705 C 194.819 32.886,194.759 54.893,194.978 55.901 C 195.045 56.209,195.205 56.405,195.417 56.440 C 197.037 56.705,199.081 56.831,201.785 56.832 L 204.987 56.833 205.146 56.208 C 205.284 55.666,205.555 46.231,205.528 42.917 C 205.489 38.198,205.276 32.552,205.131 32.375 C 204.922 32.122,204.493 32.132,202.705 32.432 M237.600 32.441 C 237.151 32.579,236.513 32.900,236.183 33.155 C 235.853 33.410,235.021 33.813,234.333 34.050 C 232.234 34.775,231.463 35.164,231.571 35.444 C 231.623 35.581,231.667 36.023,231.667 36.425 C 231.667 37.035,231.761 37.250,232.239 37.728 C 232.860 38.349,233.059 38.914,233.331 40.833 C 233.745 43.752,233.871 44.238,234.358 44.798 C 235.088 45.638,235.360 46.438,235.504 48.167 C 235.678 50.253,236.205 51.706,237.107 52.585 C 237.672 53.136,237.828 53.430,237.987 54.252 C 238.149 55.082,238.621 56.640,238.722 56.677 C 238.737 56.682,240.222 56.751,242.021 56.829 C 243.821 56.907,246.016 57.066,246.901 57.182 C 248.161 57.347,248.828 57.350,249.982 57.196 C 250.792 57.088,251.690 57.000,251.977 57.000 C 252.277 57.000,252.506 56.911,252.514 56.792 C 252.621 55.169,252.511 54.636,251.942 54.006 C 251.534 53.554,251.307 53.092,251.170 52.433 C 250.935 51.300,250.927 51.298,250.591 52.309 C 249.561 55.411,247.090 54.487,246.599 50.816 C 246.340 48.885,246.130 48.206,245.745 48.058 C 245.091 47.808,244.457 45.826,244.232 43.333 C 244.087 41.728,243.799 40.923,243.184 40.405 C 242.585 39.902,242.263 39.060,241.911 37.083 C 241.433 34.391,241.359 34.198,240.728 33.969 C 240.335 33.827,240.105 33.604,239.972 33.237 C 239.621 32.265,238.929 32.033,237.600 32.441 M259.681 32.455 C 259.184 32.582,258.624 32.795,258.435 32.927 C 258.047 33.199,255.495 33.245,254.083 33.005 C 253.037 32.828,252.815 33.012,252.706 34.152 C 252.608 35.169,252.872 35.886,253.512 36.342 C 254.394 36.970,255.020 38.841,255.423 42.054 C 255.490 42.588,255.642 42.951,255.877 43.137 C 257.106 44.110,257.280 44.491,257.850 47.474 C 258.000 48.257,258.203 48.710,258.635 49.224 C 259.461 50.207,259.783 51.033,260.010 52.750 C 260.303 54.969,260.331 55.031,261.262 55.473 C 261.714 55.687,262.289 56.057,262.540 56.294 C 262.791 56.531,263.020 56.694,263.049 56.655 C 263.131 56.545,263.946 54.330,264.167 53.618 C 264.275 53.271,264.611 52.746,264.913 52.452 C 265.503 51.878,265.886 50.841,266.174 49.038 C 266.372 47.795,266.971 46.380,267.495 45.917 C 268.411 45.106,268.374 42.640,267.440 42.248 C 266.674 41.928,266.201 41.343,265.908 40.355 C 265.765 39.874,265.493 39.354,265.304 39.199 C 264.219 38.311,264.073 38.020,263.658 35.917 C 263.297 34.089,263.081 33.500,262.773 33.500 C 262.644 33.500,262.421 33.321,262.277 33.102 C 261.847 32.444,260.767 32.175,259.681 32.455 M280.750 32.488 C 280.017 32.646,279.167 32.905,278.862 33.065 C 278.203 33.410,276.596 33.937,275.713 34.098 C 275.367 34.161,274.662 34.423,274.147 34.681 L 273.211 35.149 273.095 36.328 C 272.998 37.320,273.037 37.660,273.339 38.462 C 273.690 39.392,273.699 39.613,273.682 46.917 L 273.664 54.417 274.058 55.250 C 274.774 56.762,274.674 56.730,278.912 56.806 L 282.634 56.873 282.859 56.478 C 283.041 56.158,283.085 53.878,283.090 44.360 C 283.097 30.495,283.378 31.922,280.750 32.488 M295.250 32.497 C 294.517 32.659,293.504 32.900,293.000 33.032 C 292.234 33.232,291.919 33.237,291.083 33.060 C 288.941 32.606,289.094 31.751,289.032 44.500 C 288.978 55.632,289.007 56.144,289.714 56.529 C 289.968 56.666,291.206 56.733,293.667 56.740 L 297.250 56.750 297.625 56.006 L 298.000 55.263 297.988 45.340 C 297.981 39.882,297.922 35.041,297.856 34.582 C 297.791 34.123,297.787 33.502,297.849 33.201 C 298.051 32.209,297.379 32.027,295.250 32.497 M310.206 32.366 C 308.868 32.576,308.814 32.682,308.706 35.341 C 308.564 38.855,309.058 39.109,309.664 35.833 C 309.960 34.230,310.128 33.887,310.723 33.669 C 311.013 33.562,311.625 33.301,312.083 33.088 L 312.917 32.701 312.451 32.518 C 311.690 32.221,311.305 32.194,310.206 32.366 M324.417 32.497 C 323.592 32.660,322.579 32.920,322.167 33.075 C 321.573 33.299,321.130 33.334,320.036 33.247 C 317.160 33.016,317.272 32.562,317.268 44.417 C 317.265 55.014,317.269 55.071,318.241 56.132 L 318.795 56.736 322.481 56.805 L 326.167 56.874 326.458 56.228 C 326.726 55.636,326.751 54.681,326.766 44.583 C 326.777 36.824,326.837 33.448,326.970 33.125 C 327.128 32.741,326.249 31.938,325.938 32.183 C 325.926 32.193,325.242 32.334,324.417 32.497 M331.299 32.318 C 330.156 32.440,329.702 32.758,330.434 32.924 C 331.864 33.248,332.241 33.392,332.602 33.754 C 332.821 33.973,333.000 34.328,333.000 34.544 C 333.000 35.107,333.316 35.417,334.126 35.646 C 334.970 35.886,335.237 36.257,335.501 37.564 C 335.694 38.519,336.273 39.807,336.743 40.326 C 337.374 41.023,337.413 41.444,337.499 48.500 C 337.609 57.558,337.124 56.742,342.398 56.747 L 345.712 56.750 346.064 56.280 C 346.398 55.835,346.421 55.564,346.500 51.197 C 346.581 46.695,346.594 46.561,347.005 45.679 L 347.428 44.775 346.949 43.012 C 346.502 41.362,346.469 41.027,346.438 37.750 C 346.420 35.825,346.356 34.171,346.296 34.074 C 346.236 33.977,346.250 33.619,346.327 33.278 C 346.607 32.036,345.719 31.971,341.688 32.938 C 340.717 33.171,340.526 33.168,339.469 32.909 C 338.186 32.595,337.162 32.645,336.324 33.063 C 335.796 33.327,335.512 33.238,335.503 32.805 C 335.499 32.649,333.285 32.161,332.717 32.191 C 332.460 32.205,331.822 32.262,331.299 32.318 M354.608 32.438 L 354.132 32.696 354.691 33.067 C 354.998 33.271,355.483 33.532,355.767 33.646 C 356.287 33.854,357.000 35.837,357.000 37.071 C 357.000 37.287,357.140 37.636,357.311 37.847 L 357.621 38.230 357.817 37.864 C 358.081 37.371,358.081 32.715,357.817 32.397 C 357.544 32.068,355.236 32.097,354.608 32.438 M383.542 32.415 C 382.903 32.693,382.908 32.666,383.333 33.500 C 383.517 33.859,383.667 34.416,383.667 34.737 C 383.667 35.995,384.532 35.839,384.746 34.542 C 384.880 33.730,385.393 33.233,386.269 33.069 C 386.937 32.943,387.105 32.745,386.827 32.409 C 386.560 32.087,384.288 32.091,383.542 32.415 M29.750 32.416 C 29.658 32.447,29.283 32.527,28.917 32.593 L 28.250 32.713 28.827 32.870 C 29.145 32.957,29.606 33.172,29.853 33.347 C 30.419 33.751,30.405 33.752,30.753 33.222 C 31.152 32.613,30.564 32.140,29.750 32.416 M157.500 32.518 C 157.179 32.603,156.767 32.760,156.583 32.868 C 156.053 33.181,154.025 33.424,152.707 33.333 L 151.498 33.250 151.347 33.750 C 151.264 34.025,151.156 34.438,151.107 34.667 C 150.985 35.228,150.934 56.323,151.053 56.442 C 151.253 56.641,153.697 56.819,156.337 56.826 L 159.091 56.833 159.716 56.318 C 160.738 55.475,160.777 55.305,160.891 51.072 C 160.984 47.613,161.035 47.103,161.401 45.989 C 161.781 44.827,161.793 44.693,161.579 43.833 C 160.836 40.847,160.780 40.412,160.815 37.917 C 160.842 36.042,160.788 35.240,160.600 34.710 C 160.380 34.089,160.379 33.933,160.591 33.423 C 160.724 33.105,160.833 32.813,160.833 32.775 C 160.833 32.436,158.492 32.255,157.500 32.518 M186.667 32.534 C 186.254 32.625,185.839 32.764,185.743 32.841 C 185.384 33.134,183.861 33.357,182.287 33.345 C 180.665 33.334,180.657 33.336,180.460 33.792 C 180.117 34.583,179.865 53.843,180.177 55.417 C 180.459 56.840,180.154 56.750,184.726 56.750 C 189.195 56.750,189.279 56.732,189.705 55.667 C 189.955 55.042,189.919 35.347,189.666 34.582 C 189.496 34.067,189.517 33.916,189.826 33.392 C 190.250 32.673,190.277 32.711,189.173 32.501 C 188.134 32.304,187.683 32.310,186.667 32.534 M371.417 32.517 C 371.050 32.599,370.468 32.822,370.124 33.012 C 369.423 33.397,367.743 33.360,365.750 32.915 C 364.049 32.535,362.333 32.452,362.333 32.749 C 362.333 32.898,362.486 33.001,362.708 33.002 C 363.779 33.009,363.927 33.183,364.167 34.726 C 364.592 37.456,364.665 37.662,365.367 38.105 C 366.152 38.600,366.516 39.343,366.931 41.292 C 367.115 42.155,367.304 42.667,367.439 42.667 C 368.702 42.667,369.604 45.784,368.744 47.176 C 368.703 47.242,369.074 47.460,369.567 47.660 C 370.743 48.137,371.056 48.499,371.589 50.000 C 371.872 50.797,372.257 51.492,372.651 51.917 C 373.614 52.957,373.660 53.048,373.922 54.439 C 374.321 56.556,374.355 56.604,375.535 56.727 C 378.107 56.996,384.433 56.851,384.736 56.516 C 385.196 56.007,385.316 54.714,384.984 53.833 C 384.829 53.421,384.618 52.769,384.514 52.385 C 384.397 51.951,384.205 51.648,384.007 51.585 C 383.117 51.303,382.586 50.190,382.077 47.540 C 382.016 47.224,381.822 46.920,381.611 46.811 C 380.327 46.150,379.569 44.152,379.611 41.541 L 379.638 39.833 379.194 39.738 C 376.948 39.257,375.526 37.401,374.899 34.134 C 374.643 32.799,374.531 32.503,374.253 32.428 C 373.758 32.295,372.183 32.344,371.417 32.517 M17.781 33.404 C 17.402 34.324,14.824 36.861,13.945 37.179 C 13.266 37.425,13.244 37.469,13.022 39.000 C 12.716 41.111,12.971 42.497,13.762 43.028 C 14.196 43.318,14.554 43.742,14.752 44.200 C 15.155 45.130,15.458 45.478,16.101 45.747 C 16.389 45.867,16.766 46.170,16.938 46.420 C 17.504 47.244,17.965 47.652,18.444 47.755 C 19.545 47.992,20.402 48.412,21.054 49.035 C 21.796 49.744,22.605 50.212,23.417 50.404 C 24.711 50.710,25.093 51.375,25.248 53.593 C 25.390 55.619,25.440 55.815,25.791 55.738 C 25.952 55.703,26.496 55.640,27.000 55.598 C 27.504 55.556,28.483 55.322,29.175 55.078 L 30.432 54.633 30.807 53.192 C 31.013 52.399,31.301 51.337,31.447 50.833 C 31.934 49.151,31.928 47.577,31.431 46.663 C 31.194 46.228,31.000 45.710,31.000 45.512 C 31.000 44.939,30.398 43.916,29.936 43.706 C 29.702 43.599,29.340 43.248,29.131 42.925 C 28.883 42.543,28.371 42.142,27.667 41.779 C 26.850 41.358,26.501 41.065,26.247 40.585 C 25.854 39.841,25.718 39.757,24.500 39.506 C 23.153 39.228,22.143 38.675,21.687 37.969 C 21.405 37.531,21.034 37.251,20.391 36.990 C 19.294 36.544,18.882 36.053,18.749 35.030 C 18.441 32.656,18.232 32.306,17.781 33.404 M166.000 34.313 C 166.000 35.604,166.056 36.006,166.261 36.176 C 166.744 36.577,166.958 37.242,167.078 38.716 L 167.198 40.181 166.610 40.736 C 166.000 41.311,165.635 42.274,165.418 43.885 C 165.303 44.739,165.585 45.682,166.474 47.417 C 166.841 48.134,166.910 48.519,166.970 50.180 L 167.039 52.111 166.534 52.686 C 165.329 54.059,165.586 55.859,167.051 56.310 C 168.767 56.837,170.707 56.938,171.370 56.533 C 171.671 56.349,172.299 56.086,172.765 55.949 C 175.989 55.003,177.100 52.895,176.502 48.860 C 176.242 47.108,176.062 46.788,175.192 46.527 C 173.866 46.130,173.529 45.291,173.899 43.309 C 174.174 41.833,174.245 41.730,175.842 40.513 L 176.372 40.110 176.287 38.096 C 176.187 35.736,175.967 34.833,175.493 34.833 C 175.102 34.833,173.903 33.785,173.581 33.162 L 173.350 32.715 172.310 33.231 C 170.830 33.965,167.593 33.827,166.698 32.993 C 166.083 32.421,166.000 32.578,166.000 34.313 M216.403 32.822 C 215.861 33.389,214.667 33.618,213.360 33.407 C 211.471 33.102,211.386 33.320,211.348 38.561 L 211.333 40.539 210.684 41.145 C 210.327 41.478,209.836 41.900,209.592 42.083 L 209.150 42.417 209.362 43.640 C 209.556 44.766,209.623 44.900,210.200 45.307 C 211.313 46.094,211.400 46.451,211.507 50.667 C 211.613 54.817,211.664 55.033,212.624 55.342 C 213.407 55.594,213.617 55.762,214.091 56.512 C 214.440 57.065,214.564 57.128,215.642 57.306 C 217.724 57.650,223.230 57.295,224.276 56.749 C 224.537 56.613,224.835 56.502,224.938 56.501 C 225.117 56.500,225.351 56.030,225.584 55.206 C 225.655 54.954,225.521 54.490,225.179 53.805 C 224.897 53.241,224.667 52.637,224.667 52.462 C 224.667 51.391,224.033 51.366,223.593 52.420 C 223.141 53.502,221.951 53.992,221.126 53.436 C 220.238 52.839,220.094 52.350,220.038 49.750 C 219.981 47.128,219.754 46.306,218.972 45.902 C 217.309 45.042,217.311 41.958,218.974 41.029 C 220.011 40.449,220.085 40.222,220.070 37.667 C 220.054 35.205,219.602 33.140,219.029 32.918 C 218.465 32.699,216.586 32.630,216.403 32.822 M55.917 33.348 C 54.956 33.699,54.240 33.735,52.988 33.498 C 51.495 33.215,51.434 33.347,51.333 37.138 C 51.240 40.643,51.182 40.837,50.010 41.577 C 49.120 42.139,49.098 42.205,49.333 43.582 C 49.567 44.951,49.584 44.985,50.189 45.370 C 51.181 46.001,51.384 46.864,51.452 50.737 C 51.523 54.836,51.604 55.137,52.766 55.581 C 53.424 55.832,54.045 56.385,54.204 56.861 C 54.526 57.829,60.569 57.592,61.365 56.581 C 61.533 56.367,61.891 56.144,62.159 56.085 C 62.428 56.026,62.923 55.674,63.258 55.302 C 64.014 54.466,63.818 54.162,62.266 53.760 C 60.457 53.291,60.195 52.801,60.010 49.533 C 59.858 46.860,59.724 46.385,59.006 45.972 C 57.544 45.134,57.201 42.016,58.486 41.251 C 58.794 41.067,59.272 40.706,59.546 40.449 L 60.045 39.981 59.951 37.532 C 59.830 34.392,59.644 33.830,58.641 33.574 C 58.242 33.472,57.751 33.301,57.552 33.194 C 57.104 32.954,56.960 32.968,55.917 33.348 M81.087 39.327 C 81.020 39.435,80.863 40.016,80.737 40.619 C 80.611 41.221,80.376 41.909,80.215 42.148 C 80.054 42.388,79.799 42.852,79.649 43.180 C 79.498 43.508,79.178 43.973,78.938 44.214 C 78.380 44.772,78.370 44.741,79.235 45.159 C 80.001 45.530,80.314 45.994,80.648 47.255 C 81.357 49.926,81.736 48.367,81.582 43.420 C 81.466 39.704,81.366 38.877,81.087 39.327 M352.619 40.055 C 352.553 40.223,352.500 40.503,352.500 40.677 C 352.500 41.004,351.218 44.308,350.994 44.558 C 350.924 44.636,351.149 44.983,351.495 45.328 C 351.936 45.770,352.184 46.210,352.328 46.812 C 352.813 48.832,353.092 47.786,353.056 44.083 C 353.027 41.169,352.844 39.478,352.619 40.055 M105.109 42.138 C 104.957 42.306,104.832 42.662,104.830 42.930 C 104.828 43.198,104.688 43.722,104.518 44.094 L 104.211 44.772 104.850 45.457 L 105.490 46.143 105.929 45.621 C 106.303 45.177,106.352 45.000,106.260 44.425 C 106.200 44.054,106.108 43.413,106.054 43.000 C 105.906 41.862,105.606 41.589,105.109 42.138 M124.766 49.449 C 124.599 49.975,124.846 50.505,125.028 50.012 C 125.104 49.806,125.101 49.519,125.020 49.375 C 124.893 49.148,124.858 49.159,124.766 49.449 M85.956 51.610 C 85.911 51.687,85.752 52.176,85.602 52.697 C 85.333 53.634,84.860 54.197,84.151 54.422 C 83.746 54.550,84.130 55.326,84.856 55.847 C 85.098 56.021,85.344 56.351,85.401 56.581 C 85.483 56.906,85.613 57.000,85.983 57.000 L 86.460 57.000 86.575 55.125 C 86.710 52.944,86.355 50.930,85.956 51.610 M364.412 52.708 C 364.056 53.475,363.778 53.656,362.250 54.116 C 361.420 54.365,361.259 54.473,361.302 54.750 C 361.503 56.031,360.791 56.483,359.358 55.984 C 358.900 55.824,358.833 55.724,358.833 55.199 C 358.833 54.733,358.698 54.459,358.234 53.983 L 357.634 53.369 357.056 54.008 C 356.480 54.646,356.478 54.652,356.594 55.820 L 356.709 56.993 357.293 57.102 C 358.476 57.324,361.538 57.069,361.788 56.727 C 362.004 56.431,362.972 56.369,364.569 56.548 C 365.053 56.602,365.218 55.690,365.084 53.708 C 364.954 51.799,364.884 51.694,364.412 52.708 M123.953 53.896 C 123.378 54.412,123.186 54.691,123.266 54.897 C 123.376 55.184,124.835 56.387,124.943 56.280 C 125.312 55.910,125.221 53.143,124.840 53.174 C 124.791 53.178,124.391 53.503,123.953 53.896 M12.937 54.010 C 12.419 54.887,13.144 55.689,13.833 55.000 C 14.267 54.567,14.256 54.481,13.701 53.950 L 13.236 53.504 12.937 54.010 M109.862 54.010 C 108.923 55.199,109.927 56.343,110.974 55.276 C 111.761 54.474,111.764 54.145,110.988 53.744 C 110.367 53.423,110.316 53.435,109.862 54.010 M25.241 56.681 C 25.168 56.799,24.793 56.823,24.154 56.749 C 22.935 56.607,21.629 56.789,22.074 57.038 C 22.533 57.295,25.500 57.032,25.500 56.734 C 25.500 56.454,25.395 56.432,25.241 56.681 M17.838 56.827 C 17.628 56.960,17.634 56.998,17.881 57.093 C 18.145 57.194,19.444 57.044,19.309 56.928 C 19.125 56.770,18.046 56.696,17.838 56.827 " stroke="none" fill="#008b62" fill-rule="evenodd"></path><path id="path2" d="M115.847 18.875 C 115.885 18.898,116.142 19.104,116.417 19.333 L 116.917 19.750 116.513 19.292 C 116.290 19.040,116.034 18.833,115.943 18.833 C 115.852 18.833,115.809 18.852,115.847 18.875 M265.579 19.038 C 265.760 19.155,266.154 19.486,266.454 19.775 C 266.754 20.064,267.000 20.247,267.000 20.181 C 267.000 19.992,266.122 19.225,265.667 19.017 C 265.308 18.853,265.296 18.856,265.579 19.038 M126.233 19.567 C 125.922 19.878,125.667 20.235,125.667 20.358 C 125.668 20.482,125.814 20.344,125.992 20.051 C 126.171 19.759,126.527 19.406,126.783 19.266 C 127.040 19.127,127.149 19.010,127.025 19.007 C 126.901 19.003,126.545 19.255,126.233 19.567 M115.854 19.378 C 116.003 19.494,116.284 19.850,116.478 20.170 C 116.673 20.489,116.832 20.684,116.833 20.603 C 116.834 20.311,116.153 19.364,115.872 19.266 C 115.609 19.175,115.608 19.185,115.854 19.378 M21.250 29.313 C 20.417 29.431,19.448 29.846,19.248 30.169 C 19.190 30.264,18.697 30.566,18.153 30.840 C 17.161 31.341,13.859 34.182,12.942 35.325 C 11.292 37.379,10.936 40.700,12.074 43.417 C 12.357 44.093,14.284 46.628,14.672 46.836 C 14.844 46.928,15.394 47.362,15.895 47.800 C 16.491 48.322,17.133 48.700,17.755 48.896 C 18.452 49.116,18.911 49.407,19.478 49.988 C 20.232 50.761,20.926 51.113,22.459 51.501 C 23.733 51.823,24.448 54.181,23.526 55.018 C 22.311 56.121,18.126 55.721,16.811 54.376 C 16.385 53.940,15.757 53.362,15.415 53.092 C 15.003 52.765,14.612 52.200,14.253 51.412 C 13.773 50.358,13.611 50.165,12.814 49.703 C 12.321 49.417,11.682 49.028,11.396 48.838 L 10.874 48.493 10.624 49.038 C 10.441 49.437,10.345 50.509,10.267 53.038 C 10.207 54.939,10.123 56.589,10.079 56.705 C 10.035 56.821,10.181 57.142,10.402 57.417 L 10.804 57.917 13.443 57.938 C 15.223 57.953,16.355 58.040,16.917 58.206 C 17.573 58.399,18.637 58.442,21.917 58.409 C 26.859 58.359,27.493 58.243,29.002 57.109 C 30.287 56.143,30.603 56.138,31.656 57.074 C 32.922 58.198,33.063 58.221,39.333 58.296 C 45.541 58.370,46.838 58.255,47.673 57.552 C 48.308 57.018,48.295 56.781,47.598 56.250 C 46.600 55.489,46.498 54.970,46.512 50.705 C 46.525 46.724,47.024 43.166,47.407 44.333 C 47.482 44.563,47.834 45.398,48.189 46.189 C 48.812 47.579,48.837 47.708,48.928 49.939 C 49.026 52.379,48.967 52.147,50.244 55.072 C 51.579 58.128,54.523 59.159,60.083 58.520 C 61.390 58.370,78.675 58.266,85.917 58.364 C 91.133 58.435,111.032 58.270,111.833 58.149 C 113.892 57.837,114.251 56.827,114.060 51.881 C 113.952 49.095,113.697 48.048,112.968 47.388 C 112.557 47.016,112.196 47.395,111.243 49.206 C 110.917 49.823,110.399 50.520,110.092 50.755 C 109.784 50.990,109.482 51.382,109.421 51.627 C 109.032 53.176,106.582 55.013,104.308 55.462 L 102.953 55.728 102.477 55.195 L 102.000 54.661 102.000 50.920 L 102.000 47.178 102.524 46.581 L 103.048 45.984 103.541 46.450 C 103.812 46.707,104.203 47.292,104.410 47.750 C 104.913 48.867,105.192 49.069,106.723 49.422 C 107.841 49.680,108.051 49.689,108.181 49.487 C 108.607 48.826,108.710 47.728,108.689 44.083 C 108.663 39.317,108.672 39.287,110.429 38.842 C 110.802 38.747,111.397 38.419,111.751 38.113 L 112.395 37.557 112.467 35.147 C 112.590 31.061,111.387 29.347,108.905 30.074 C 107.785 30.402,105.496 30.419,104.083 30.111 C 102.713 29.812,101.126 29.919,98.250 30.504 C 96.801 30.799,95.726 30.888,93.122 30.928 C 89.714 30.981,89.279 31.034,88.798 31.457 C 88.539 31.683,88.472 31.659,88.084 31.198 C 87.476 30.475,86.713 30.271,85.101 30.398 C 82.558 30.599,80.300 30.539,79.500 30.250 C 78.243 29.797,75.486 29.863,73.000 30.406 C 71.248 30.788,70.341 30.878,67.295 30.972 L 63.674 31.083 63.214 31.544 C 62.773 31.985,62.749 32.094,62.639 34.210 C 62.576 35.424,62.460 36.674,62.383 36.988 C 62.282 37.394,62.329 37.903,62.545 38.738 C 63.355 41.872,62.836 50.500,61.838 50.500 C 61.687 50.500,61.333 48.816,61.333 48.094 C 61.333 47.234,60.169 43.610,59.633 42.804 C 59.401 42.454,59.417 42.411,59.901 42.089 C 61.054 41.324,61.708 38.627,61.354 36.096 C 61.251 35.356,61.166 34.322,61.166 33.800 C 61.167 32.703,60.946 32.112,60.440 31.856 C 59.728 31.497,57.099 31.129,55.779 31.205 C 55.062 31.246,54.087 31.215,53.613 31.136 C 51.230 30.738,48.244 30.700,47.881 31.064 C 47.434 31.511,47.524 32.555,48.109 33.710 C 49.413 36.282,49.403 39.478,48.087 40.848 L 47.258 41.712 46.881 40.898 C 46.372 39.798,46.329 35.643,46.805 33.651 C 47.111 32.374,47.115 30.893,46.813 30.583 C 46.557 30.321,44.118 30.388,41.750 30.724 C 39.482 31.045,34.692 31.005,33.316 30.654 C 32.958 30.562,32.521 30.561,32.233 30.650 C 30.061 31.324,26.576 31.226,25.803 30.470 C 24.764 29.455,23.147 29.044,21.250 29.313 M298.208 30.002 C 295.351 31.018,290.204 31.202,286.893 30.407 C 285.036 29.962,284.990 29.959,284.019 30.231 C 283.476 30.384,281.572 30.653,279.788 30.830 C 274.200 31.383,272.760 32.060,271.089 34.918 C 270.737 35.519,270.384 36.052,270.305 36.101 C 269.998 36.290,269.355 37.808,269.159 38.804 C 268.698 41.146,267.566 41.304,267.019 39.103 C 266.754 38.036,266.251 37.060,265.579 36.311 C 265.174 35.859,264.966 35.393,264.762 34.477 C 263.955 30.861,262.569 29.850,259.474 30.618 C 258.642 30.824,257.652 30.871,254.833 30.835 C 252.862 30.811,250.750 30.790,250.139 30.790 C 249.194 30.790,249.015 30.743,248.946 30.478 C 248.901 30.307,248.745 30.167,248.599 30.167 C 248.228 30.167,248.267 30.453,248.667 30.667 C 248.936 30.811,249.000 31.016,249.000 31.735 C 249.000 32.397,249.149 32.953,249.583 33.905 L 250.167 35.185 250.162 41.218 C 250.159 46.483,250.119 47.424,249.849 48.618 C 249.581 49.801,248.781 51.499,248.491 51.500 C 248.315 51.500,247.849 49.904,247.502 48.105 C 247.289 47.001,246.975 45.969,246.701 45.466 C 246.453 45.012,246.113 44.383,245.945 44.070 C 245.777 43.757,245.525 42.882,245.385 42.125 C 244.928 39.657,244.504 38.300,243.942 37.512 C 243.205 36.478,243.034 36.036,242.668 34.213 C 242.192 31.850,241.716 31.250,239.726 30.505 L 238.817 30.165 237.117 30.587 C 233.700 31.434,233.364 31.532,232.516 31.925 C 231.551 32.372,231.044 32.894,230.119 34.391 C 229.772 34.953,229.275 35.638,229.013 35.915 C 228.230 36.741,228.001 37.398,227.808 39.375 C 227.589 41.614,227.494 41.906,226.884 42.195 C 226.139 42.548,225.523 43.978,225.316 45.832 C 225.102 47.748,224.731 48.542,223.839 48.997 C 223.477 49.182,222.874 49.625,222.497 49.984 C 221.665 50.775,221.601 50.685,221.450 48.500 C 221.360 47.204,221.097 46.117,220.665 45.250 C 220.573 45.067,220.355 44.354,220.181 43.667 L 219.864 42.417 220.246 42.000 C 220.780 41.418,221.095 40.743,221.415 39.493 C 221.567 38.901,221.806 38.239,221.945 38.022 C 222.173 37.670,222.173 37.563,221.948 37.022 C 221.809 36.689,221.486 35.554,221.230 34.500 C 220.493 31.464,219.850 31.036,216.167 31.125 C 215.387 31.143,214.008 31.080,213.102 30.985 C 207.624 30.408,206.609 31.004,208.242 33.836 L 208.964 35.090 209.081 37.506 L 209.198 39.922 208.235 40.832 L 207.272 41.743 206.888 40.913 C 206.363 39.777,206.325 35.662,206.820 33.583 C 207.624 30.213,207.199 29.979,201.652 30.739 C 198.803 31.129,194.848 30.925,193.629 30.325 L 192.841 29.937 191.296 30.217 C 188.779 30.671,186.629 30.865,182.861 30.977 L 179.306 31.083 178.798 31.652 C 178.293 32.218,178.290 32.229,178.395 33.652 C 178.535 35.536,178.542 47.029,178.405 47.388 C 178.221 47.867,178.077 47.699,177.826 46.713 C 177.564 45.682,176.860 45.000,176.059 45.000 C 175.552 45.000,175.526 44.391,176.006 43.780 C 176.193 43.543,176.424 43.124,176.520 42.848 C 176.616 42.572,176.831 42.304,176.998 42.251 C 177.680 42.034,177.822 41.104,177.841 36.718 L 177.859 32.583 177.471 32.291 C 176.661 31.681,174.885 31.333,172.577 31.333 C 171.381 31.333,169.506 31.214,168.410 31.068 C 165.362 30.662,163.833 30.923,163.833 31.849 C 163.833 32.446,163.559 32.295,163.372 31.596 C 163.059 30.425,161.280 30.113,158.136 30.678 C 157.557 30.782,155.483 30.893,153.527 30.924 C 150.696 30.970,149.891 31.033,149.583 31.235 C 149.115 31.542,148.726 32.586,148.970 32.881 C 149.530 33.562,149.797 50.912,149.278 52.915 L 149.062 53.746 148.846 52.665 C 148.727 52.070,148.560 51.301,148.475 50.956 C 148.305 50.272,147.495 49.240,147.005 49.085 C 146.571 48.947,146.205 47.918,145.921 46.037 C 145.596 43.879,145.329 43.051,144.606 41.962 C 144.133 41.250,143.872 40.530,143.413 38.676 C 142.813 36.250,142.644 35.805,141.911 34.726 C 141.681 34.387,141.372 33.691,141.225 33.180 C 140.547 30.821,139.934 30.250,138.250 30.403 C 136.089 30.600,133.029 31.522,132.194 32.229 C 132.072 32.332,131.398 32.717,130.696 33.083 L 129.419 33.750 128.335 35.871 C 127.738 37.038,127.030 38.343,126.760 38.772 C 126.313 39.486,126.254 39.758,126.077 41.959 C 125.877 44.449,125.837 44.557,125.058 44.765 C 124.481 44.920,123.844 46.585,123.480 48.892 C 123.099 51.301,122.792 52.213,122.240 52.574 C 122.015 52.722,121.598 53.256,121.312 53.761 C 121.027 54.267,120.421 54.994,119.965 55.379 C 118.843 56.325,118.615 56.777,118.962 57.365 C 119.513 58.298,119.869 58.362,124.167 58.303 C 128.327 58.247,128.569 58.204,129.667 57.326 L 130.083 56.993 129.286 56.256 C 128.847 55.850,128.175 55.346,127.793 55.134 C 127.194 54.803,127.035 54.588,126.643 53.583 C 126.065 52.101,126.065 52.023,126.668 51.192 L 127.169 50.500 129.699 50.500 L 132.229 50.500 133.240 51.287 C 135.352 52.933,135.729 54.625,134.337 56.207 L 133.681 56.951 134.144 57.395 C 135.152 58.360,135.438 58.374,154.533 58.350 C 164.862 58.337,172.159 58.263,172.666 58.167 C 174.432 57.832,176.538 57.795,178.321 58.068 C 180.722 58.435,204.844 58.463,206.385 58.100 C 208.074 57.703,208.481 57.083,207.590 56.267 C 206.579 55.341,206.500 54.944,206.500 50.828 C 206.500 47.654,206.549 46.931,206.859 45.584 L 207.217 44.023 208.065 45.720 L 208.912 47.417 208.998 49.946 C 209.076 52.271,209.113 52.506,209.456 52.870 C 209.661 53.088,209.971 53.681,210.146 54.189 C 210.768 55.998,212.081 57.445,213.781 58.198 C 215.215 58.832,228.887 58.606,229.873 57.931 C 230.999 57.162,230.895 56.320,229.583 55.571 C 228.787 55.116,228.328 54.638,227.917 53.833 C 227.706 53.421,227.338 52.902,227.100 52.679 C 226.523 52.141,226.552 51.958,227.292 51.447 C 228.511 50.605,228.986 50.500,231.576 50.500 L 233.996 50.500 234.389 51.125 C 234.605 51.469,234.915 52.163,235.078 52.667 C 235.242 53.171,235.549 53.816,235.761 54.101 C 235.974 54.386,236.089 54.686,236.018 54.768 C 235.948 54.850,235.693 55.383,235.452 55.952 L 235.015 56.988 235.615 57.483 C 236.507 58.218,239.257 58.445,248.500 58.548 C 251.687 58.584,256.076 58.248,256.535 57.935 C 257.742 57.110,257.480 56.310,255.657 55.250 C 255.281 55.032,254.939 54.617,254.667 54.049 C 254.438 53.572,254.012 52.934,253.721 52.632 C 253.362 52.260,253.106 51.747,252.924 51.038 C 252.776 50.464,252.433 49.390,252.161 48.652 C 251.194 46.030,251.491 41.504,252.684 40.654 C 253.451 40.108,253.763 40.594,254.339 43.235 C 254.649 44.654,254.903 45.179,255.853 46.360 C 256.073 46.633,256.360 47.485,256.601 48.577 C 257.007 50.420,257.378 51.356,258.082 52.314 C 258.522 52.912,258.880 53.968,259.177 55.543 C 259.399 56.725,259.892 57.341,260.991 57.814 C 263.128 58.733,263.892 58.406,264.969 56.112 C 265.321 55.363,265.732 54.649,265.882 54.526 C 266.258 54.218,266.743 52.853,267.076 51.167 C 267.461 49.215,267.464 49.208,268.100 48.504 C 268.839 47.686,269.090 47.052,269.414 45.180 C 269.898 42.394,270.248 41.875,270.822 43.096 C 271.405 44.336,271.500 45.311,271.500 50.034 C 271.500 55.027,271.540 54.826,270.287 56.116 C 268.292 58.170,269.431 58.333,285.750 58.332 C 298.873 58.331,299.744 58.289,301.292 57.584 C 302.294 57.127,302.329 57.040,301.727 56.487 C 301.484 56.265,301.072 55.750,300.810 55.342 L 300.333 54.601 300.333 44.806 L 300.333 35.010 300.858 33.132 C 301.146 32.099,301.535 31.046,301.723 30.793 C 302.167 30.192,302.019 30.072,300.551 29.849 C 299.115 29.630,299.285 29.619,298.208 30.002 M347.299 30.043 C 343.811 30.849,339.203 31.111,336.577 30.653 C 335.763 30.512,334.633 30.491,332.753 30.583 C 331.285 30.655,328.353 30.728,326.239 30.745 C 324.124 30.762,322.309 30.829,322.204 30.893 C 322.100 30.958,319.124 30.923,315.592 30.816 L 309.169 30.622 308.580 31.019 C 306.480 32.436,306.378 39.073,308.436 40.345 L 309.049 40.724 309.600 40.123 C 309.943 39.749,310.252 39.156,310.418 38.553 C 310.886 36.856,311.191 36.355,312.527 35.078 C 313.948 33.720,314.042 33.702,314.750 34.641 C 315.075 35.072,315.083 35.342,315.083 44.928 L 315.083 54.773 314.689 55.345 C 314.472 55.659,314.004 56.122,313.647 56.373 C 312.860 56.929,312.849 57.046,313.542 57.474 C 315.233 58.517,326.470 58.724,329.583 57.769 C 331.302 57.242,333.206 57.020,333.552 57.307 C 334.667 58.232,336.097 58.315,351.417 58.344 C 366.498 58.371,367.038 58.346,367.862 57.556 C 368.478 56.965,368.465 56.875,367.594 55.716 C 365.747 53.259,365.944 51.025,368.076 50.269 C 368.777 50.020,369.443 49.781,369.555 49.738 C 369.686 49.687,370.016 50.309,370.475 51.475 C 370.976 52.746,371.363 53.458,371.762 53.845 C 372.456 54.518,372.463 54.689,371.833 55.750 C 370.493 58.010,371.572 58.335,380.410 58.330 C 387.290 58.326,387.569 58.292,388.406 57.351 C 388.787 56.923,387.881 54.757,386.951 53.874 C 386.393 53.344,385.999 52.616,385.585 51.352 C 385.424 50.859,385.049 50.184,384.752 49.852 C 384.065 49.086,383.798 48.556,383.259 46.893 C 382.982 46.037,382.614 45.304,382.244 44.872 C 381.157 43.602,380.830 42.640,381.109 41.532 C 381.416 40.311,381.671 39.667,381.848 39.667 C 382.117 39.667,383.186 38.613,383.467 38.072 C 383.623 37.772,384.121 37.277,384.574 36.972 C 385.090 36.624,385.527 36.157,385.744 35.723 C 386.225 34.756,386.573 34.414,387.299 34.197 C 388.633 33.797,389.937 30.875,389.094 30.175 C 388.648 29.806,386.595 29.791,385.436 30.149 C 384.810 30.342,383.875 30.504,383.357 30.509 C 380.833 30.535,379.932 31.889,380.998 34.055 L 381.534 35.144 381.104 35.708 C 380.867 36.019,380.557 36.602,380.416 37.003 C 379.822 38.685,379.024 38.662,378.162 36.938 C 378.030 36.675,377.650 36.180,377.317 35.837 C 376.681 35.181,376.653 35.093,376.260 32.465 C 375.879 29.914,375.384 29.502,373.488 30.158 C 371.331 30.904,369.639 31.059,365.678 30.871 C 360.892 30.644,360.510 30.748,360.502 32.271 C 360.499 32.985,361.503 35.108,362.221 35.905 C 362.570 36.292,363.021 37.116,363.324 37.917 C 363.647 38.774,364.027 39.453,364.356 39.762 C 364.926 40.296,365.472 41.396,365.896 42.864 C 366.046 43.385,366.363 44.041,366.600 44.322 L 367.030 44.833 366.695 45.542 C 366.511 45.931,366.232 46.718,366.075 47.290 C 365.831 48.181,365.668 48.434,364.937 49.062 C 364.467 49.465,363.746 50.324,363.333 50.971 C 362.113 52.885,360.927 52.598,360.439 50.270 C 360.127 48.781,360.119 48.776,358.674 49.143 C 357.326 49.485,357.163 49.659,356.573 51.386 C 356.273 52.267,355.467 53.162,354.324 53.885 C 353.917 54.143,353.349 54.523,353.064 54.729 C 351.900 55.569,349.879 55.674,349.181 54.932 C 348.672 54.390,348.629 47.502,349.131 46.948 C 349.925 46.070,351.167 46.345,351.167 47.399 C 351.167 47.994,351.744 49.410,352.197 49.926 L 352.714 50.514 353.093 50.157 C 354.214 49.104,354.661 45.155,354.188 40.491 C 353.762 36.297,352.461 35.571,351.512 38.997 C 350.861 41.346,350.406 41.699,349.309 40.708 L 348.618 40.084 348.722 37.442 C 348.823 34.880,348.841 34.773,349.351 33.859 C 349.640 33.341,349.960 32.749,350.063 32.543 C 350.278 32.113,350.500 32.050,350.500 32.419 C 350.500 32.708,351.308 33.243,352.167 33.524 C 352.824 33.738,354.333 34.926,354.333 35.229 C 354.333 35.338,354.577 35.659,354.875 35.942 C 355.184 36.236,355.590 36.915,355.820 37.521 C 356.679 39.780,358.025 40.078,358.980 38.219 C 359.083 38.019,359.169 37.269,359.172 36.553 C 359.176 35.836,359.287 34.650,359.419 33.917 C 360.100 30.148,360.000 30.075,354.708 30.475 C 352.729 30.624,352.409 30.610,351.625 30.337 C 350.673 30.005,348.192 29.837,347.299 30.043 M103.603 32.179 C 103.825 32.861,104.476 33.273,106.495 34.007 C 108.232 34.638,108.333 34.721,108.333 35.496 C 108.333 36.848,107.719 37.627,106.079 38.352 C 105.496 38.610,105.242 38.857,104.929 39.467 C 104.276 40.742,103.068 41.821,102.757 41.409 C 101.817 40.164,101.658 36.354,102.423 33.409 C 102.992 31.219,103.214 30.987,103.603 32.179 M23.782 31.841 C 24.057 31.936,24.451 32.244,24.659 32.525 C 25.061 33.069,26.358 33.739,27.361 33.921 C 28.096 34.054,28.481 34.392,29.229 35.562 C 29.638 36.200,29.978 36.522,30.444 36.708 C 32.905 37.693,34.352 41.362,33.213 43.730 L 32.742 44.710 31.862 43.296 C 31.111 42.090,30.792 41.750,29.699 40.993 C 28.994 40.505,28.103 39.832,27.719 39.499 C 27.336 39.166,26.698 38.793,26.303 38.669 C 25.282 38.350,24.370 37.830,24.094 37.410 C 23.965 37.212,23.188 36.621,22.368 36.096 L 20.877 35.142 21.256 33.914 C 21.863 31.945,22.525 31.402,23.782 31.841 M110.538 32.375 C 110.991 33.074,111.055 35.072,110.650 35.867 C 110.234 36.682,110.144 36.595,109.732 34.974 C 109.352 33.482,109.306 33.427,108.150 33.105 C 106.747 32.715,107.066 32.300,108.880 32.152 C 109.542 32.098,110.131 32.042,110.189 32.027 C 110.247 32.012,110.404 32.169,110.538 32.375 M45.131 32.375 C 45.276 32.552,45.489 38.198,45.528 42.917 C 45.555 46.231,45.284 55.666,45.146 56.208 L 44.987 56.833 40.850 56.833 C 34.465 56.833,34.879 57.027,34.634 53.932 C 34.546 52.824,34.359 51.467,34.219 50.917 C 33.924 49.762,33.692 47.170,33.873 47.059 C 34.442 46.708,34.749 44.537,34.682 41.333 C 34.548 34.947,34.570 33.962,34.862 33.310 L 35.134 32.703 36.109 32.935 C 38.020 33.389,39.836 33.424,40.626 33.021 C 41.776 32.434,44.820 31.998,45.131 32.375 M74.330 32.413 C 74.475 32.587,74.551 33.852,74.593 36.788 C 74.626 39.059,74.739 41.760,74.845 42.791 C 74.951 43.822,74.986 44.910,74.922 45.208 C 74.859 45.506,74.757 48.041,74.695 50.841 C 74.596 55.352,74.549 55.984,74.282 56.391 L 73.981 56.851 70.166 56.800 L 66.351 56.750 65.765 56.182 C 64.849 55.293,64.618 54.680,64.899 53.882 C 65.126 53.241,65.213 49.269,65.241 38.327 C 65.253 33.914,65.593 33.333,68.170 33.333 C 69.055 33.333,69.531 33.246,69.977 33.002 C 71.073 32.403,73.994 32.007,74.330 32.413 M84.934 32.507 C 85.154 32.590,85.333 32.739,85.333 32.839 C 85.333 33.078,83.863 33.721,83.613 33.591 C 82.337 32.927,82.088 32.688,82.506 32.533 C 82.732 32.450,83.029 32.336,83.167 32.282 C 83.451 32.169,84.343 32.282,84.934 32.507 M99.556 32.527 C 100.069 32.656,100.170 32.742,100.068 32.969 C 99.921 33.294,99.928 33.527,100.152 35.660 C 100.247 36.560,100.261 37.811,100.186 38.576 C 100.088 39.567,100.117 40.178,100.297 40.917 C 100.663 42.418,100.962 44.872,100.825 45.250 C 100.479 46.207,100.333 47.953,100.333 51.152 C 100.333 55.194,100.255 55.525,99.097 56.366 L 98.417 56.859 94.714 56.805 C 89.782 56.732,90.152 57.309,90.346 49.990 C 90.420 47.200,90.485 42.606,90.490 39.782 C 90.496 36.765,90.573 34.359,90.676 33.949 L 90.852 33.250 93.051 33.250 C 94.660 33.249,95.362 33.185,95.667 33.009 C 96.324 32.631,98.042 32.190,98.500 32.283 C 98.729 32.329,99.204 32.439,99.556 32.527 M139.601 32.458 C 139.723 32.619,139.825 33.041,139.828 33.396 C 139.841 34.960,140.486 36.948,141.260 37.809 C 142.025 38.660,142.500 39.939,142.500 41.149 C 142.500 42.307,143.004 43.631,143.675 44.238 C 144.368 44.864,144.686 45.990,144.927 48.667 C 145.061 50.160,145.302 50.699,146.234 51.583 C 146.878 52.195,146.962 52.374,147.243 53.750 C 147.754 56.243,148.121 56.665,149.782 56.666 C 150.258 56.666,150.689 56.735,150.741 56.819 C 150.883 57.049,148.584 57.215,146.815 57.102 C 145.954 57.048,143.938 56.957,142.333 56.901 C 137.322 56.725,136.737 56.390,136.476 53.553 C 136.283 51.462,135.947 50.564,135.121 49.934 C 134.377 49.367,134.171 48.600,134.009 45.807 C 133.872 43.440,133.423 42.157,132.502 41.502 C 132.052 41.181,131.720 40.441,131.418 39.083 C 131.265 38.395,130.894 38.029,130.140 37.826 C 129.325 37.607,129.335 37.522,130.292 36.538 C 130.727 36.090,131.216 35.526,131.378 35.285 C 131.594 34.964,131.997 34.749,132.878 34.487 C 134.327 34.057,135.234 33.615,135.951 32.989 C 136.306 32.679,136.754 32.487,137.285 32.417 C 137.724 32.359,138.196 32.288,138.333 32.259 C 138.969 32.123,139.398 32.190,139.601 32.458 M205.131 32.375 C 205.276 32.552,205.489 38.198,205.528 42.917 C 205.555 46.231,205.284 55.666,205.146 56.208 L 204.987 56.833 201.785 56.832 C 199.081 56.831,197.037 56.705,195.417 56.440 C 195.205 56.405,195.045 56.209,194.978 55.901 C 194.759 54.893,194.819 32.886,195.042 32.705 C 195.264 32.524,196.444 32.664,197.167 32.957 C 198.149 33.355,199.915 33.383,200.641 33.013 C 201.778 32.433,204.822 32.000,205.131 32.375 M239.323 32.437 C 239.575 32.586,239.867 32.946,239.972 33.237 C 240.105 33.604,240.335 33.827,240.728 33.969 C 241.359 34.198,241.433 34.391,241.911 37.083 C 242.263 39.060,242.585 39.902,243.184 40.405 C 243.799 40.923,244.087 41.728,244.232 43.333 C 244.457 45.826,245.091 47.808,245.745 48.058 C 246.130 48.206,246.340 48.885,246.599 50.816 C 247.090 54.487,249.561 55.411,250.591 52.309 C 250.927 51.298,250.935 51.300,251.170 52.433 C 251.307 53.092,251.534 53.554,251.942 54.006 C 252.511 54.636,252.621 55.169,252.514 56.792 C 252.506 56.911,252.277 57.000,251.977 57.000 C 251.690 57.000,250.792 57.088,249.982 57.196 C 248.828 57.350,248.161 57.347,246.901 57.182 C 246.016 57.066,243.821 56.907,242.021 56.829 C 240.222 56.751,238.737 56.682,238.722 56.677 C 238.621 56.640,238.149 55.082,237.987 54.252 C 237.828 53.430,237.672 53.136,237.107 52.585 C 236.205 51.706,235.678 50.253,235.504 48.167 C 235.360 46.438,235.088 45.638,234.358 44.798 C 233.871 44.238,233.745 43.752,233.331 40.833 C 233.059 38.914,232.860 38.349,232.239 37.728 C 231.761 37.250,231.667 37.035,231.667 36.425 C 231.667 36.023,231.623 35.581,231.571 35.444 C 231.463 35.164,232.234 34.775,234.333 34.050 C 235.021 33.813,235.853 33.410,236.183 33.155 C 236.722 32.739,238.055 32.209,238.641 32.178 C 238.764 32.172,239.071 32.288,239.323 32.437 M262.277 33.102 C 262.421 33.321,262.644 33.500,262.773 33.500 C 263.081 33.500,263.297 34.089,263.658 35.917 C 264.073 38.020,264.219 38.311,265.304 39.199 C 265.493 39.354,265.765 39.874,265.908 40.355 C 266.201 41.343,266.674 41.928,267.440 42.248 C 268.374 42.640,268.411 45.106,267.495 45.917 C 266.971 46.380,266.372 47.795,266.174 49.038 C 265.886 50.841,265.503 51.878,264.913 52.452 C 264.611 52.746,264.275 53.271,264.167 53.618 C 263.946 54.330,263.131 56.545,263.049 56.655 C 263.020 56.694,262.791 56.531,262.540 56.294 C 262.289 56.057,261.714 55.687,261.262 55.473 C 260.331 55.031,260.303 54.969,260.010 52.750 C 259.783 51.033,259.461 50.207,258.635 49.224 C 258.203 48.710,258.000 48.257,257.850 47.474 C 257.280 44.491,257.106 44.110,255.877 43.137 C 255.642 42.951,255.490 42.588,255.423 42.054 C 255.020 38.841,254.394 36.970,253.512 36.342 C 252.872 35.886,252.608 35.169,252.706 34.152 C 252.815 33.012,253.037 32.828,254.083 33.005 C 255.495 33.245,258.047 33.199,258.435 32.927 C 259.609 32.104,261.686 32.199,262.277 33.102 M282.761 32.401 C 283.192 32.704,283.286 55.728,282.859 56.478 L 282.634 56.873 278.912 56.806 C 274.674 56.730,274.774 56.762,274.058 55.250 L 273.664 54.417 273.682 46.917 C 273.699 39.613,273.690 39.392,273.339 38.462 C 273.037 37.660,272.998 37.320,273.095 36.328 L 273.211 35.149 274.147 34.681 C 274.662 34.423,275.367 34.161,275.713 34.098 C 276.596 33.937,278.203 33.410,278.862 33.065 C 279.311 32.830,281.518 32.257,282.255 32.184 C 282.349 32.174,282.577 32.272,282.761 32.401 M297.488 32.411 C 297.906 32.627,297.947 32.718,297.849 33.201 C 297.787 33.502,297.791 34.123,297.856 34.582 C 297.922 35.041,297.981 39.882,297.988 45.340 L 298.000 55.263 297.625 56.006 L 297.250 56.750 293.667 56.740 C 291.206 56.733,289.968 56.666,289.714 56.529 C 289.007 56.144,288.978 55.632,289.032 44.500 C 289.094 31.751,288.941 32.606,291.083 33.060 C 291.919 33.237,292.234 33.232,293.000 33.032 C 294.097 32.745,296.496 32.210,296.800 32.185 C 296.919 32.175,297.229 32.276,297.488 32.411 M312.451 32.518 L 312.917 32.701 312.083 33.088 C 311.625 33.301,311.013 33.562,310.723 33.669 C 310.128 33.887,309.960 34.230,309.664 35.833 C 309.246 38.091,309.180 38.260,308.882 37.834 C 308.575 37.396,308.650 33.486,308.977 32.876 C 309.296 32.281,311.314 32.073,312.451 32.518 M326.559 32.417 C 327.126 32.654,327.148 32.692,326.970 33.125 C 326.837 33.448,326.777 36.824,326.766 44.583 C 326.751 54.681,326.726 55.636,326.458 56.228 L 326.167 56.874 322.481 56.805 L 318.795 56.736 318.241 56.132 C 317.269 55.071,317.265 55.014,317.268 44.417 C 317.272 32.562,317.160 33.016,320.036 33.247 C 321.130 33.334,321.573 33.299,322.167 33.075 C 322.579 32.920,323.592 32.660,324.417 32.497 C 325.242 32.334,325.926 32.193,325.938 32.183 C 325.950 32.174,326.229 32.279,326.559 32.417 M334.342 32.430 C 334.979 32.575,335.501 32.744,335.503 32.805 C 335.512 33.238,335.796 33.327,336.324 33.063 C 337.162 32.645,338.186 32.595,339.469 32.909 C 340.526 33.168,340.717 33.171,341.688 32.938 C 345.719 31.971,346.607 32.036,346.327 33.278 C 346.250 33.619,346.236 33.977,346.296 34.074 C 346.356 34.171,346.420 35.825,346.438 37.750 C 346.469 41.027,346.502 41.362,346.949 43.012 L 347.428 44.775 347.005 45.679 C 346.594 46.561,346.581 46.695,346.500 51.197 C 346.421 55.564,346.398 55.835,346.064 56.280 L 345.712 56.750 342.398 56.747 C 337.124 56.742,337.609 57.558,337.499 48.500 C 337.413 41.444,337.374 41.023,336.743 40.326 C 336.273 39.807,335.694 38.519,335.501 37.564 C 335.237 36.257,334.970 35.886,334.126 35.646 C 333.316 35.417,333.000 35.107,333.000 34.544 C 333.000 34.328,332.821 33.973,332.602 33.754 C 332.241 33.392,331.864 33.248,330.434 32.924 C 329.702 32.758,330.156 32.440,331.299 32.318 C 332.887 32.147,333.141 32.157,334.342 32.430 M357.817 32.397 C 358.081 32.715,358.081 37.371,357.817 37.864 L 357.621 38.230 357.311 37.847 C 357.140 37.636,357.000 37.287,357.000 37.071 C 357.000 35.837,356.287 33.854,355.767 33.646 C 355.483 33.532,354.998 33.271,354.691 33.067 L 354.132 32.696 354.608 32.438 C 355.236 32.097,357.544 32.068,357.817 32.397 M386.827 32.409 C 387.105 32.745,386.937 32.943,386.269 33.069 C 385.393 33.233,384.880 33.730,384.746 34.542 C 384.532 35.839,383.667 35.995,383.667 34.737 C 383.667 34.416,383.517 33.859,383.333 33.500 C 383.150 33.141,383.000 32.803,383.000 32.749 C 383.000 32.235,386.430 31.931,386.827 32.409 M30.740 32.556 C 31.031 32.768,31.031 32.798,30.753 33.222 C 30.405 33.752,30.419 33.751,29.853 33.347 C 29.606 33.172,29.145 32.957,28.827 32.870 L 28.250 32.713 28.917 32.593 C 29.283 32.527,29.658 32.447,29.750 32.416 C 30.108 32.295,30.449 32.343,30.740 32.556 M160.093 32.520 C 160.500 32.622,160.833 32.737,160.833 32.775 C 160.833 32.813,160.724 33.105,160.591 33.423 C 160.379 33.933,160.380 34.089,160.600 34.710 C 160.788 35.240,160.842 36.042,160.815 37.917 C 160.780 40.412,160.836 40.847,161.579 43.833 C 161.793 44.693,161.781 44.827,161.401 45.989 C 161.035 47.103,160.984 47.613,160.891 51.072 C 160.777 55.305,160.738 55.475,159.716 56.318 L 159.091 56.833 156.337 56.826 C 153.697 56.819,151.253 56.641,151.053 56.442 C 150.934 56.323,150.985 35.228,151.107 34.667 C 151.156 34.438,151.264 34.025,151.347 33.750 L 151.498 33.250 152.707 33.333 C 154.025 33.424,156.053 33.181,156.583 32.868 C 157.443 32.362,158.894 32.218,160.093 32.520 M189.173 32.501 C 190.277 32.711,190.250 32.673,189.826 33.392 C 189.517 33.916,189.496 34.067,189.666 34.582 C 189.919 35.347,189.955 55.042,189.705 55.667 C 189.279 56.732,189.195 56.750,184.726 56.750 C 180.154 56.750,180.459 56.840,180.177 55.417 C 179.865 53.843,180.117 34.583,180.460 33.792 C 180.657 33.336,180.665 33.334,182.287 33.345 C 183.861 33.357,185.384 33.134,185.743 32.841 C 186.243 32.434,187.934 32.266,189.173 32.501 M374.253 32.428 C 374.531 32.503,374.643 32.799,374.899 34.134 C 375.526 37.401,376.948 39.257,379.194 39.738 L 379.638 39.833 379.611 41.541 C 379.569 44.152,380.327 46.150,381.611 46.811 C 381.822 46.920,382.016 47.224,382.077 47.540 C 382.586 50.190,383.117 51.303,384.007 51.585 C 384.205 51.648,384.397 51.951,384.514 52.385 C 384.618 52.769,384.829 53.421,384.984 53.833 C 385.316 54.714,385.196 56.007,384.736 56.516 C 384.433 56.851,378.107 56.996,375.535 56.727 C 374.355 56.604,374.321 56.556,373.922 54.439 C 373.660 53.048,373.614 52.957,372.651 51.917 C 372.257 51.492,371.872 50.797,371.589 50.000 C 371.056 48.499,370.743 48.137,369.567 47.660 C 369.074 47.460,368.703 47.242,368.744 47.176 C 369.604 45.784,368.702 42.667,367.439 42.667 C 367.304 42.667,367.115 42.155,366.931 41.292 C 366.516 39.343,366.152 38.600,365.367 38.105 C 364.665 37.662,364.592 37.456,364.167 34.726 C 363.927 33.183,363.779 33.009,362.708 33.002 C 362.486 33.001,362.333 32.898,362.333 32.749 C 362.333 32.452,364.049 32.535,365.750 32.915 C 367.743 33.360,369.423 33.397,370.124 33.012 C 371.146 32.449,373.234 32.154,374.253 32.428 M18.474 33.458 C 18.569 33.894,18.693 34.601,18.749 35.030 C 18.882 36.053,19.294 36.544,20.391 36.990 C 21.034 37.251,21.405 37.531,21.687 37.969 C 22.143 38.675,23.153 39.228,24.500 39.506 C 25.718 39.757,25.854 39.841,26.247 40.585 C 26.501 41.065,26.850 41.358,27.667 41.779 C 28.371 42.142,28.883 42.543,29.131 42.925 C 29.340 43.248,29.702 43.599,29.936 43.706 C 30.398 43.916,31.000 44.939,31.000 45.512 C 31.000 45.710,31.194 46.228,31.431 46.663 C 31.928 47.577,31.934 49.151,31.447 50.833 C 31.301 51.337,31.013 52.399,30.807 53.192 L 30.432 54.633 29.175 55.078 C 28.483 55.322,27.504 55.556,27.000 55.598 C 26.496 55.640,25.952 55.703,25.791 55.738 C 25.440 55.815,25.390 55.619,25.248 53.593 C 25.093 51.375,24.711 50.710,23.417 50.404 C 22.605 50.212,21.796 49.744,21.054 49.035 C 20.402 48.412,19.545 47.992,18.444 47.755 C 17.965 47.652,17.504 47.244,16.938 46.420 C 16.766 46.170,16.389 45.867,16.101 45.747 C 15.458 45.478,15.155 45.130,14.752 44.200 C 14.554 43.742,14.196 43.318,13.762 43.028 C 12.971 42.497,12.716 41.111,13.022 39.000 C 13.244 37.469,13.266 37.425,13.945 37.179 C 14.824 36.861,17.402 34.324,17.781 33.404 C 18.164 32.473,18.259 32.480,18.474 33.458 M164.407 34.417 C 164.549 34.967,164.722 36.448,164.791 37.708 L 164.918 40.000 164.388 41.433 C 163.769 43.103,163.712 43.182,163.418 42.780 C 162.533 41.569,162.355 35.038,163.165 33.452 L 163.572 32.654 163.861 33.035 C 164.020 33.245,164.266 33.867,164.407 34.417 M166.698 32.993 C 167.593 33.827,170.830 33.965,172.310 33.231 L 173.350 32.715 173.581 33.162 C 173.903 33.785,175.102 34.833,175.493 34.833 C 175.967 34.833,176.187 35.736,176.287 38.096 L 176.372 40.110 175.842 40.513 C 174.245 41.730,174.174 41.833,173.899 43.309 C 173.529 45.291,173.866 46.130,175.192 46.527 C 176.062 46.788,176.242 47.108,176.502 48.860 C 177.100 52.895,175.989 55.003,172.765 55.949 C 172.299 56.086,171.671 56.349,171.370 56.533 C 170.707 56.938,168.767 56.837,167.051 56.310 C 165.586 55.859,165.329 54.059,166.534 52.686 L 167.039 52.111 166.970 50.180 C 166.910 48.519,166.841 48.134,166.474 47.417 C 165.585 45.682,165.303 44.739,165.418 43.885 C 165.635 42.274,166.000 41.311,166.610 40.736 L 167.198 40.181 167.078 38.716 C 166.958 37.242,166.744 36.577,166.261 36.176 C 166.056 36.006,166.000 35.604,166.000 34.313 C 166.000 32.578,166.083 32.421,166.698 32.993 M219.029 32.918 C 219.602 33.140,220.054 35.205,220.070 37.667 C 220.085 40.222,220.011 40.449,218.974 41.029 C 217.311 41.958,217.309 45.042,218.972 45.902 C 219.754 46.306,219.981 47.128,220.038 49.750 C 220.094 52.350,220.238 52.839,221.126 53.436 C 221.951 53.992,223.141 53.502,223.593 52.420 C 224.033 51.366,224.667 51.391,224.667 52.462 C 224.667 52.637,224.897 53.241,225.179 53.805 C 225.521 54.490,225.655 54.954,225.584 55.206 C 225.351 56.030,225.117 56.500,224.938 56.501 C 224.835 56.502,224.537 56.613,224.276 56.749 C 223.230 57.295,217.724 57.650,215.642 57.306 C 214.564 57.128,214.440 57.065,214.091 56.512 C 213.617 55.762,213.407 55.594,212.624 55.342 C 211.664 55.033,211.613 54.817,211.507 50.667 C 211.400 46.451,211.313 46.094,210.200 45.307 C 209.623 44.900,209.556 44.766,209.362 43.640 L 209.150 42.417 209.592 42.083 C 209.836 41.900,210.327 41.478,210.684 41.145 L 211.333 40.539 211.348 38.561 C 211.386 33.320,211.471 33.102,213.360 33.407 C 214.667 33.618,215.861 33.389,216.403 32.822 C 216.586 32.630,218.465 32.699,219.029 32.918 M80.850 33.833 C 81.290 33.833,82.500 35.044,82.500 35.485 C 82.500 36.110,82.192 36.500,81.698 36.500 C 80.723 36.500,80.164 37.246,79.821 39.002 C 79.461 40.850,79.154 41.162,77.700 41.165 L 76.483 41.167 76.245 40.598 C 76.052 40.136,76.032 39.475,76.135 37.084 C 76.279 33.742,76.242 33.823,77.885 33.199 L 78.686 32.894 79.616 33.364 C 80.128 33.622,80.683 33.833,80.850 33.833 M57.552 33.194 C 57.751 33.301,58.242 33.472,58.641 33.574 C 59.644 33.830,59.830 34.392,59.951 37.532 L 60.045 39.981 59.546 40.449 C 59.272 40.706,58.794 41.067,58.486 41.251 C 57.201 42.016,57.544 45.134,59.006 45.972 C 59.724 46.385,59.858 46.860,60.010 49.533 C 60.195 52.801,60.457 53.291,62.266 53.760 C 63.818 54.162,64.014 54.466,63.258 55.302 C 62.923 55.674,62.428 56.026,62.159 56.085 C 61.891 56.144,61.533 56.367,61.365 56.581 C 60.569 57.592,54.526 57.829,54.204 56.861 C 54.045 56.385,53.424 55.832,52.766 55.581 C 51.604 55.137,51.523 54.836,51.452 50.737 C 51.384 46.864,51.181 46.001,50.189 45.370 C 49.584 44.985,49.567 44.951,49.333 43.582 C 49.098 42.205,49.120 42.139,50.010 41.577 C 51.182 40.837,51.240 40.643,51.333 37.138 C 51.434 33.347,51.495 33.215,52.988 33.498 C 54.240 33.735,54.956 33.699,55.917 33.348 C 56.960 32.968,57.104 32.954,57.552 33.194 M193.399 34.437 C 193.651 35.205,193.675 36.267,193.631 44.975 L 193.583 54.659 193.128 55.114 L 192.674 55.569 192.170 55.087 L 191.667 54.604 191.667 44.906 C 191.667 34.668,191.676 34.523,192.438 33.361 C 192.757 32.873,192.960 33.099,193.399 34.437 M88.844 39.467 C 88.966 46.726,88.761 49.946,88.225 49.182 C 87.920 48.746,87.558 48.552,86.685 48.356 L 85.994 48.201 85.543 48.970 C 85.295 49.393,84.903 50.267,84.671 50.913 C 84.157 52.346,83.914 52.699,83.182 53.076 C 82.870 53.237,82.267 53.694,81.843 54.091 C 80.687 55.171,79.196 55.624,77.702 55.349 C 76.069 55.048,76.167 55.325,76.167 50.993 C 76.167 46.327,76.050 46.667,77.656 46.667 C 79.135 46.667,79.091 46.625,79.670 48.535 C 80.499 51.266,81.904 51.395,82.594 48.802 C 82.872 47.756,82.910 43.211,82.671 39.508 C 82.501 36.879,82.551 36.667,83.334 36.667 C 83.713 36.667,83.903 36.839,84.422 37.654 C 86.079 40.254,87.907 39.593,88.076 36.333 C 88.194 34.076,88.314 33.414,88.563 33.662 C 88.690 33.790,88.780 35.646,88.844 39.467 M285.741 44.758 C 285.751 55.179,285.780 54.833,284.885 54.833 C 284.652 54.833,284.544 35.179,284.773 34.582 C 284.866 34.340,284.935 34.359,285.306 34.731 L 285.733 35.157 285.741 44.758 M331.204 34.792 C 331.344 34.952,331.608 35.425,331.789 35.843 C 331.971 36.261,332.466 36.993,332.890 37.470 C 334.021 38.744,334.559 40.087,335.003 42.750 C 335.292 44.483,335.197 54.462,334.887 54.964 C 333.624 57.006,331.930 57.293,329.667 55.848 L 328.417 55.049 328.374 44.936 L 328.331 34.824 328.707 34.672 C 329.395 34.396,330.921 34.469,331.204 34.792 M399.127 37.285 C 399.334 37.324,399.634 37.323,399.794 37.281 C 399.953 37.239,399.783 37.207,399.417 37.209 C 399.050 37.211,398.920 37.245,399.127 37.285 M81.582 43.420 C 81.736 48.367,81.357 49.926,80.648 47.255 C 80.314 45.994,80.001 45.530,79.235 45.159 C 78.370 44.741,78.380 44.772,78.938 44.214 C 79.178 43.973,79.498 43.508,79.649 43.180 C 79.799 42.852,80.054 42.388,80.215 42.148 C 80.376 41.909,80.611 41.221,80.737 40.619 C 81.258 38.128,81.435 38.714,81.582 43.420 M129.950 39.708 C 130.037 39.823,130.354 40.742,130.654 41.750 C 130.955 42.758,131.389 43.911,131.619 44.311 C 132.038 45.041,132.382 46.863,132.218 47.488 C 132.020 48.246,127.386 48.146,127.091 47.378 C 126.968 47.057,127.417 45.157,127.909 43.917 C 128.127 43.367,128.421 42.243,128.562 41.420 C 128.854 39.709,129.422 39.010,129.950 39.708 M353.056 44.083 C 353.092 47.786,352.813 48.832,352.328 46.812 C 352.184 46.210,351.936 45.770,351.495 45.328 C 351.149 44.983,350.924 44.636,350.994 44.558 C 351.218 44.308,352.500 41.004,352.500 40.677 C 352.500 40.503,352.553 40.223,352.619 40.055 C 352.844 39.478,353.027 41.169,353.056 44.083 M231.900 41.777 C 232.665 44.022,232.621 46.912,231.808 47.777 C 231.189 48.436,229.217 48.281,228.784 47.538 C 227.667 45.626,227.818 42.684,229.034 42.663 C 229.153 42.661,229.736 42.254,230.329 41.760 C 231.560 40.734,231.545 40.734,231.900 41.777 M105.791 42.042 C 105.882 42.156,106.000 42.587,106.054 43.000 C 106.108 43.413,106.200 44.054,106.260 44.425 C 106.352 45.000,106.303 45.177,105.929 45.621 L 105.490 46.143 104.850 45.457 L 104.211 44.772 104.518 44.094 C 104.688 43.722,104.828 43.198,104.830 42.930 C 104.835 42.167,105.444 41.605,105.791 42.042 M164.194 46.505 C 165.110 47.917,164.993 54.215,164.032 55.219 L 163.584 55.688 163.125 55.175 L 162.667 54.661 162.667 50.869 C 162.667 47.085,162.667 47.076,163.089 46.455 C 163.616 45.680,163.661 45.682,164.194 46.505 M396.977 48.436 C 397.189 48.584,397.505 48.941,397.680 49.228 C 397.855 49.515,397.999 49.659,397.999 49.547 C 398.000 49.279,397.017 48.167,396.779 48.167 C 396.676 48.167,396.766 48.288,396.977 48.436 M125.028 50.012 C 124.903 50.350,124.878 50.358,124.774 50.087 C 124.605 49.646,124.821 49.020,125.020 49.375 C 125.101 49.519,125.104 49.806,125.028 50.012 M86.525 52.522 C 86.622 52.948,86.643 54.027,86.575 55.125 L 86.460 57.000 85.983 57.000 C 85.613 57.000,85.483 56.906,85.401 56.581 C 85.344 56.351,85.098 56.021,84.856 55.847 C 84.130 55.326,83.746 54.550,84.151 54.422 C 84.860 54.197,85.333 53.634,85.602 52.697 C 86.027 51.216,86.220 51.179,86.525 52.522 M365.084 53.708 C 365.218 55.690,365.053 56.602,364.569 56.548 C 362.972 56.369,362.004 56.431,361.788 56.727 C 361.538 57.069,358.476 57.324,357.293 57.102 L 356.709 56.993 356.594 55.820 C 356.478 54.652,356.480 54.646,357.056 54.008 L 357.634 53.369 358.234 53.983 C 358.698 54.459,358.833 54.733,358.833 55.199 C 358.833 55.724,358.900 55.824,359.358 55.984 C 360.791 56.483,361.503 56.031,361.302 54.750 C 361.259 54.473,361.420 54.365,362.250 54.116 C 363.778 53.656,364.056 53.475,364.412 52.708 C 364.884 51.694,364.954 51.799,365.084 53.708 M33.089 55.096 C 32.463 56.593,31.857 55.151,32.418 53.500 L 32.729 52.583 33.028 53.554 C 33.295 54.419,33.301 54.587,33.089 55.096 M125.119 53.875 C 125.284 54.492,125.169 56.053,124.943 56.280 C 124.835 56.387,123.376 55.184,123.266 54.897 C 123.186 54.691,123.378 54.412,123.953 53.896 C 124.935 53.016,124.891 53.017,125.119 53.875 M14.167 54.531 C 14.167 54.721,13.534 55.333,13.337 55.333 C 12.873 55.333,12.630 54.529,12.937 54.010 L 13.236 53.504 13.701 53.950 C 13.957 54.195,14.167 54.457,14.167 54.531 M110.988 53.744 C 111.764 54.145,111.761 54.474,110.974 55.276 C 110.322 55.941,110.248 55.975,109.978 55.730 C 108.996 54.842,109.853 53.157,110.988 53.744 M178.333 54.250 C 178.333 55.011,178.104 55.257,177.924 54.689 C 177.828 54.387,178.069 53.500,178.246 53.500 C 178.294 53.500,178.333 53.837,178.333 54.250 M25.500 56.734 C 25.500 57.032,22.533 57.295,22.074 57.038 C 21.629 56.789,22.935 56.607,24.154 56.749 C 24.793 56.823,25.168 56.799,25.241 56.681 C 25.395 56.432,25.500 56.454,25.500 56.734 M19.309 56.928 C 19.444 57.044,18.145 57.194,17.881 57.093 C 17.634 56.998,17.628 56.960,17.838 56.827 C 18.046 56.696,19.125 56.770,19.309 56.928 M0.294 63.451 C 0.501 63.491,0.801 63.490,0.960 63.448 C 1.120 63.406,0.950 63.374,0.583 63.375 C 0.217 63.377,0.086 63.411,0.294 63.451 M0.294 63.785 C 0.501 63.824,0.801 63.823,0.960 63.781 C 1.120 63.739,0.950 63.707,0.583 63.709 C 0.217 63.711,0.086 63.745,0.294 63.785 M307.758 67.378 C 307.881 67.697,308.654 68.235,308.792 68.097 C 308.845 68.043,308.812 68.000,308.717 68.000 C 308.623 68.000,308.345 67.800,308.100 67.555 C 307.855 67.310,307.702 67.231,307.758 67.378 M307.333 67.443 C 307.333 67.534,307.540 67.790,307.792 68.013 L 308.250 68.417 307.833 67.917 C 307.604 67.642,307.398 67.385,307.375 67.347 C 307.352 67.309,307.333 67.352,307.333 67.443 " stroke="none" fill="#5b9f31" fill-rule="evenodd"></path><path id="path3" d="" stroke="none" fill="#ff8000" fill-rule="evenodd"></path><path id="path4" d="M14.167 18.334 C 14.167 18.419,14.060 18.449,13.929 18.399 C 13.580 18.264,13.283 18.950,13.379 19.669 C 13.508 20.630,13.455 20.652,10.910 20.703 L 8.583 20.750 8.546 21.815 C 8.501 23.110,8.572 23.039,7.350 23.022 C 6.178 23.005,6.185 22.998,6.054 24.403 L 5.953 25.486 4.852 25.535 L 3.750 25.583 3.700 26.662 C 3.642 27.907,3.567 27.985,2.543 27.870 C 2.034 27.813,1.819 27.842,1.892 27.960 C 1.961 28.072,1.869 28.101,1.641 28.041 C 1.337 27.962,1.295 28.004,1.375 28.307 C 1.426 28.505,1.400 28.667,1.315 28.667 C 1.227 28.667,1.171 29.618,1.185 30.875 C 1.198 32.090,1.199 33.552,1.188 34.125 L 1.167 35.167 0.583 35.167 L 0.000 35.167 0.000 49.250 L 0.000 63.333 0.625 63.357 L 1.250 63.381 0.583 63.500 L -0.083 63.619 0.583 63.667 L 1.250 63.714 0.583 63.827 L -0.083 63.940 0.583 64.012 L 1.250 64.083 1.193 64.958 C 1.160 65.468,1.206 65.833,1.302 65.833 C 1.394 65.833,1.432 66.002,1.387 66.208 C 1.328 66.476,1.350 66.520,1.462 66.361 C 1.591 66.179,1.638 66.185,1.718 66.393 C 1.788 66.577,2.053 66.646,2.669 66.641 C 3.722 66.633,3.669 66.571,3.713 67.838 C 3.740 68.608,3.817 68.907,4.000 68.957 C 4.222 69.018,4.222 69.006,4.000 68.849 C 3.846 68.740,3.826 68.671,3.948 68.669 C 4.058 68.668,4.188 68.733,4.239 68.815 C 4.289 68.897,5.247 68.975,6.368 68.990 C 8.740 69.020,8.479 68.904,8.653 70.008 C 8.738 70.543,8.912 70.979,9.095 71.112 C 9.425 71.354,10.667 71.418,10.667 71.194 C 10.667 71.118,10.779 71.056,10.917 71.056 C 11.054 71.056,11.167 71.118,11.167 71.194 C 11.167 71.490,12.498 71.335,12.833 71.000 C 13.216 70.617,13.311 69.341,12.958 69.322 C 12.844 69.315,12.900 69.245,13.083 69.167 C 13.564 68.960,18.667 68.960,18.667 69.167 C 18.667 69.258,18.592 69.333,18.500 69.333 C 18.183 69.333,18.315 70.648,18.667 71.000 C 19.019 71.352,20.333 71.484,20.333 71.167 C 20.333 71.075,20.446 71.000,20.583 71.000 C 20.721 71.000,20.833 71.075,20.833 71.167 C 20.833 71.423,22.049 71.364,22.443 71.088 C 22.695 70.911,22.826 70.582,22.909 69.921 L 23.024 69.000 163.554 68.986 C 240.845 68.979,304.562 68.960,305.148 68.945 C 306.290 68.915,306.891 68.520,306.333 68.164 C 306.120 68.028,306.126 68.005,306.375 68.003 C 306.604 68.001,306.670 67.848,306.682 67.292 L 306.696 66.583 306.916 67.380 C 307.199 68.410,307.401 68.636,308.142 68.757 C 308.476 68.811,308.966 68.896,309.229 68.946 C 309.603 69.016,309.678 68.986,309.572 68.809 C 309.461 68.626,309.484 68.622,309.692 68.790 C 309.984 69.026,393.248 69.102,393.619 68.866 C 393.742 68.788,393.817 68.360,393.810 67.775 C 393.796 66.592,393.769 66.618,394.982 66.645 C 395.600 66.659,396.058 66.586,396.196 66.451 C 396.317 66.332,396.678 66.160,396.997 66.070 C 397.673 65.879,398.393 64.941,398.287 64.390 C 398.236 64.122,398.283 64.055,398.472 64.127 C 398.656 64.198,398.695 64.149,398.617 63.946 C 398.559 63.792,398.584 63.667,398.674 63.667 C 398.769 63.667,398.820 63.225,398.796 62.625 L 398.754 61.583 399.377 61.532 L 400.000 61.480 400.000 56.907 L 400.000 52.333 399.375 52.333 L 398.750 52.333 398.796 51.250 C 398.821 50.654,398.784 50.166,398.713 50.165 C 398.642 50.165,398.565 49.786,398.542 49.323 C 398.477 47.972,398.032 47.500,396.822 47.500 C 396.294 47.500,396.337 47.637,396.268 45.750 C 396.241 45.003,396.057 44.835,395.283 44.855 C 393.923 44.889,394.000 44.965,394.000 43.583 L 394.000 42.333 394.958 42.328 C 397.056 42.318,398.177 42.223,398.357 42.043 C 398.621 41.779,398.778 40.078,398.524 40.235 C 398.253 40.403,398.288 40.188,398.579 39.897 C 398.754 39.723,398.813 39.343,398.786 38.576 L 398.747 37.500 399.415 37.476 L 400.083 37.453 399.417 37.333 L 398.750 37.214 399.375 37.190 L 400.000 37.167 400.000 31.343 L 400.000 25.520 399.375 25.468 L 398.750 25.417 398.795 24.220 C 398.820 23.562,398.771 22.981,398.686 22.928 C 398.601 22.876,398.571 22.683,398.619 22.499 C 398.667 22.315,398.603 22.038,398.478 21.884 C 398.322 21.692,398.316 21.642,398.458 21.728 C 398.603 21.815,398.667 21.725,398.667 21.432 C 398.667 20.877,398.237 20.668,397.141 20.690 C 396.651 20.700,395.667 20.699,394.955 20.687 L 393.660 20.667 393.765 20.248 C 393.829 19.996,393.780 19.717,393.644 19.549 C 393.487 19.356,393.481 19.308,393.625 19.395 C 393.947 19.588,393.886 18.751,393.558 18.479 C 393.081 18.083,270.196 18.067,269.896 18.462 C 269.761 18.640,269.675 18.670,269.672 18.542 C 269.662 18.163,268.549 18.291,268.259 18.704 C 267.939 19.162,267.897 20.415,268.208 20.228 C 268.350 20.143,268.343 20.193,268.188 20.385 C 267.827 20.829,267.718 20.726,267.599 19.833 C 267.463 18.809,267.017 18.457,265.825 18.433 C 265.372 18.424,265.002 18.364,265.001 18.299 C 264.998 18.007,227.833 18.179,227.831 18.472 C 227.829 18.690,227.798 18.702,227.686 18.525 C 227.607 18.402,227.403 18.328,227.232 18.361 C 226.853 18.433,226.714 18.989,227.025 19.186 C 227.199 19.296,227.184 19.329,226.958 19.331 C 226.730 19.333,226.667 19.477,226.667 20.000 L 226.667 20.667 224.102 20.667 L 221.537 20.667 221.434 20.119 C 221.234 19.049,219.396 17.872,218.971 18.541 C 218.876 18.691,218.838 18.669,218.836 18.462 C 218.833 18.190,216.329 18.174,173.250 18.179 C 134.475 18.183,127.667 18.219,127.667 18.416 C 127.667 18.543,127.593 18.693,127.502 18.749 C 127.407 18.807,127.379 18.740,127.436 18.592 C 127.552 18.291,127.248 18.264,126.279 18.489 C 125.512 18.667,125.228 19.017,125.086 19.958 L 124.980 20.667 124.156 20.688 C 122.378 20.733,122.568 20.551,122.521 22.250 L 122.500 23.000 121.250 23.000 C 119.858 23.000,119.913 23.064,119.996 21.542 C 120.019 21.118,119.959 20.999,119.721 20.997 C 119.464 20.995,119.455 20.970,119.667 20.833 C 119.840 20.721,119.520 20.671,118.625 20.669 L 117.333 20.667 117.331 20.125 C 117.327 19.297,116.980 18.777,116.245 18.500 C 115.461 18.204,14.167 18.039,14.167 18.334 M116.513 19.292 L 116.917 19.750 116.417 19.333 C 116.142 19.104,115.885 18.898,115.847 18.875 C 115.809 18.852,115.852 18.833,115.943 18.833 C 116.034 18.833,116.290 19.040,116.513 19.292 M266.542 19.635 C 266.794 19.870,267.000 20.116,267.000 20.181 C 267.000 20.247,266.754 20.064,266.454 19.775 C 266.154 19.486,265.760 19.155,265.579 19.038 C 265.296 18.856,265.308 18.853,265.667 19.017 C 265.896 19.122,266.290 19.400,266.542 19.635 M126.783 19.266 C 126.527 19.406,126.171 19.759,125.992 20.051 C 125.814 20.344,125.668 20.482,125.667 20.358 C 125.666 20.063,126.736 18.998,127.025 19.007 C 127.149 19.010,127.040 19.127,126.783 19.266 M116.497 19.911 C 116.682 20.211,116.833 20.522,116.833 20.603 C 116.832 20.684,116.673 20.489,116.478 20.170 C 116.284 19.850,116.003 19.494,115.854 19.378 C 115.608 19.185,115.609 19.175,115.872 19.266 C 116.030 19.321,116.311 19.612,116.497 19.911 M24.543 29.632 C 24.947 29.810,25.514 30.188,25.803 30.470 C 26.576 31.226,30.061 31.324,32.233 30.650 C 32.521 30.561,32.958 30.562,33.316 30.654 C 34.692 31.005,39.482 31.045,41.750 30.724 C 44.118 30.388,46.557 30.321,46.813 30.583 C 47.115 30.893,47.111 32.374,46.805 33.651 C 46.329 35.643,46.372 39.798,46.881 40.898 L 47.258 41.712 48.087 40.848 C 49.403 39.478,49.413 36.282,48.109 33.710 C 47.524 32.555,47.434 31.511,47.881 31.064 C 48.244 30.700,51.230 30.738,53.613 31.136 C 54.087 31.215,55.062 31.246,55.779 31.205 C 57.099 31.129,59.728 31.497,60.440 31.856 C 60.946 32.112,61.167 32.703,61.166 33.800 C 61.166 34.322,61.251 35.356,61.354 36.096 C 61.708 38.627,61.054 41.324,59.901 42.089 C 59.417 42.411,59.401 42.454,59.633 42.804 C 60.169 43.610,61.333 47.234,61.333 48.094 C 61.333 48.816,61.687 50.500,61.838 50.500 C 62.836 50.500,63.355 41.872,62.545 38.738 C 62.329 37.903,62.282 37.394,62.383 36.988 C 62.460 36.674,62.576 35.424,62.639 34.210 C 62.749 32.094,62.773 31.985,63.214 31.544 L 63.674 31.083 67.295 30.972 C 70.341 30.878,71.248 30.788,73.000 30.406 C 75.486 29.863,78.243 29.797,79.500 30.250 C 80.300 30.539,82.558 30.599,85.101 30.398 C 86.713 30.271,87.476 30.475,88.084 31.198 C 88.472 31.659,88.539 31.683,88.798 31.457 C 89.279 31.034,89.714 30.981,93.122 30.928 C 95.726 30.888,96.801 30.799,98.250 30.504 C 101.126 29.919,102.713 29.812,104.083 30.111 C 105.496 30.419,107.785 30.402,108.905 30.074 C 111.387 29.347,112.590 31.061,112.467 35.147 L 112.395 37.557 111.751 38.113 C 111.397 38.419,110.802 38.747,110.429 38.842 C 108.672 39.287,108.663 39.317,108.689 44.083 C 108.710 47.728,108.607 48.826,108.181 49.487 C 108.051 49.689,107.841 49.680,106.723 49.422 C 105.192 49.069,104.913 48.867,104.410 47.750 C 104.203 47.292,103.812 46.707,103.541 46.450 L 103.048 45.984 102.524 46.581 L 102.000 47.178 102.000 50.920 L 102.000 54.661 102.477 55.195 L 102.953 55.728 104.308 55.462 C 106.582 55.013,109.032 53.176,109.421 51.627 C 109.482 51.382,109.784 50.990,110.092 50.755 C 110.399 50.520,110.917 49.823,111.243 49.206 C 112.196 47.395,112.557 47.016,112.968 47.388 C 113.697 48.048,113.952 49.095,114.060 51.881 C 114.251 56.827,113.892 57.837,111.833 58.149 C 111.032 58.270,91.133 58.435,85.917 58.364 C 78.675 58.266,61.390 58.370,60.083 58.520 C 54.523 59.159,51.579 58.128,50.244 55.072 C 48.967 52.147,49.026 52.379,48.928 49.939 C 48.837 47.708,48.812 47.579,48.189 46.189 C 47.834 45.398,47.482 44.563,47.407 44.333 C 47.024 43.166,46.525 46.724,46.512 50.705 C 46.498 54.970,46.600 55.489,47.598 56.250 C 48.295 56.781,48.308 57.018,47.673 57.552 C 46.838 58.255,45.541 58.370,39.333 58.296 C 33.063 58.221,32.922 58.198,31.656 57.074 C 30.603 56.138,30.287 56.143,29.002 57.109 C 27.493 58.243,26.859 58.359,21.917 58.409 C 18.637 58.442,17.573 58.399,16.917 58.206 C 16.355 58.040,15.223 57.953,13.443 57.938 L 10.804 57.917 10.402 57.417 C 10.181 57.142,10.035 56.821,10.079 56.705 C 10.123 56.589,10.207 54.939,10.267 53.038 C 10.345 50.509,10.441 49.437,10.624 49.038 L 10.874 48.493 11.396 48.838 C 11.682 49.028,12.321 49.417,12.814 49.703 C 13.611 50.165,13.773 50.358,14.253 51.412 C 14.612 52.200,15.003 52.765,15.415 53.092 C 15.757 53.362,16.385 53.940,16.811 54.376 C 18.126 55.721,22.311 56.121,23.526 55.018 C 24.448 54.181,23.733 51.823,22.459 51.501 C 20.926 51.113,20.232 50.761,19.478 49.988 C 18.911 49.407,18.452 49.116,17.755 48.896 C 17.133 48.700,16.491 48.322,15.895 47.800 C 15.394 47.362,14.844 46.928,14.672 46.836 C 14.284 46.628,12.357 44.093,12.074 43.417 C 10.936 40.700,11.292 37.379,12.942 35.325 C 13.859 34.182,17.161 31.341,18.153 30.840 C 18.697 30.566,19.190 30.264,19.248 30.169 C 19.817 29.249,22.958 28.930,24.543 29.632 M300.551 29.849 C 302.019 30.072,302.167 30.192,301.723 30.793 C 301.535 31.046,301.146 32.099,300.858 33.132 L 300.333 35.010 300.333 44.806 L 300.333 54.601 300.810 55.342 C 301.072 55.750,301.484 56.265,301.727 56.487 C 302.329 57.040,302.294 57.127,301.292 57.584 C 299.744 58.289,298.873 58.331,285.750 58.332 C 269.431 58.333,268.292 58.170,270.287 56.116 C 271.540 54.826,271.500 55.027,271.500 50.034 C 271.500 45.311,271.405 44.336,270.822 43.096 C 270.248 41.875,269.898 42.394,269.414 45.180 C 269.090 47.052,268.839 47.686,268.100 48.504 C 267.464 49.208,267.461 49.215,267.076 51.167 C 266.743 52.853,266.258 54.218,265.882 54.526 C 265.732 54.649,265.321 55.363,264.969 56.112 C 263.892 58.406,263.128 58.733,260.991 57.814 C 259.892 57.341,259.399 56.725,259.177 55.543 C 258.880 53.968,258.522 52.912,258.082 52.314 C 257.378 51.356,257.007 50.420,256.601 48.577 C 256.360 47.485,256.073 46.633,255.853 46.360 C 254.903 45.179,254.649 44.654,254.339 43.235 C 253.763 40.594,253.451 40.108,252.684 40.654 C 251.491 41.504,251.194 46.030,252.161 48.652 C 252.433 49.390,252.776 50.464,252.924 51.038 C 253.106 51.747,253.362 52.260,253.721 52.632 C 254.012 52.934,254.438 53.572,254.667 54.049 C 254.939 54.617,255.281 55.032,255.657 55.250 C 259.433 57.446,256.840 58.641,248.500 58.548 C 239.257 58.445,236.507 58.218,235.615 57.483 L 235.015 56.988 235.452 55.952 C 235.693 55.383,235.948 54.850,236.018 54.768 C 236.089 54.686,235.974 54.386,235.761 54.101 C 235.549 53.816,235.242 53.171,235.078 52.667 C 234.915 52.163,234.605 51.469,234.389 51.125 L 233.996 50.500 231.576 50.500 C 228.986 50.500,228.511 50.605,227.292 51.447 C 226.552 51.958,226.523 52.141,227.100 52.679 C 227.338 52.902,227.706 53.421,227.917 53.833 C 228.328 54.638,228.787 55.116,229.583 55.571 C 230.895 56.320,230.999 57.162,229.873 57.931 C 228.887 58.606,215.215 58.832,213.781 58.198 C 212.081 57.445,210.768 55.998,210.146 54.189 C 209.971 53.681,209.661 53.088,209.456 52.870 C 209.113 52.506,209.076 52.271,208.998 49.946 L 208.912 47.417 208.065 45.720 L 207.217 44.023 206.859 45.584 C 206.549 46.931,206.500 47.654,206.500 50.828 C 206.500 54.944,206.579 55.341,207.590 56.267 C 208.481 57.083,208.074 57.703,206.385 58.100 C 204.844 58.463,180.722 58.435,178.321 58.068 C 176.538 57.795,174.432 57.832,172.666 58.167 C 172.159 58.263,164.862 58.337,154.533 58.350 C 135.438 58.374,135.152 58.360,134.144 57.395 L 133.681 56.951 134.337 56.207 C 135.729 54.625,135.352 52.933,133.240 51.287 L 132.229 50.500 129.699 50.500 L 127.169 50.500 126.668 51.192 C 126.065 52.023,126.065 52.101,126.643 53.583 C 127.035 54.588,127.194 54.803,127.793 55.134 C 128.175 55.346,128.847 55.850,129.286 56.256 L 130.083 56.993 129.667 57.326 C 128.569 58.204,128.327 58.247,124.167 58.303 C 119.869 58.362,119.513 58.298,118.962 57.365 C 118.615 56.777,118.843 56.325,119.965 55.379 C 120.421 54.994,121.027 54.267,121.312 53.761 C 121.598 53.256,122.015 52.722,122.240 52.574 C 122.792 52.213,123.099 51.301,123.480 48.892 C 123.844 46.585,124.481 44.920,125.058 44.765 C 125.837 44.557,125.877 44.449,126.077 41.959 C 126.254 39.758,126.313 39.486,126.760 38.772 C 127.030 38.343,127.738 37.038,128.335 35.871 L 129.419 33.750 130.696 33.083 C 131.398 32.717,132.072 32.332,132.194 32.229 C 133.029 31.522,136.089 30.600,138.250 30.403 C 139.934 30.250,140.547 30.821,141.225 33.180 C 141.372 33.691,141.681 34.387,141.911 34.726 C 142.644 35.805,142.813 36.250,143.413 38.676 C 143.872 40.530,144.133 41.250,144.606 41.962 C 145.329 43.051,145.596 43.879,145.921 46.037 C 146.205 47.918,146.571 48.947,147.005 49.085 C 147.495 49.240,148.305 50.272,148.475 50.956 C 148.560 51.301,148.727 52.070,148.846 52.665 L 149.062 53.746 149.278 52.915 C 149.797 50.912,149.530 33.562,148.970 32.881 C 148.726 32.586,149.115 31.542,149.583 31.235 C 149.891 31.033,150.696 30.970,153.527 30.924 C 155.483 30.893,157.557 30.782,158.136 30.678 C 161.280 30.113,163.059 30.425,163.372 31.596 C 163.559 32.295,163.833 32.446,163.833 31.849 C 163.833 30.923,165.362 30.662,168.410 31.068 C 169.506 31.214,171.381 31.333,172.577 31.333 C 174.885 31.333,176.661 31.681,177.471 32.291 L 177.859 32.583 177.841 36.718 C 177.822 41.104,177.680 42.034,176.998 42.251 C 176.831 42.304,176.616 42.572,176.520 42.848 C 176.424 43.124,176.193 43.543,176.006 43.780 C 175.526 44.391,175.552 45.000,176.059 45.000 C 176.860 45.000,177.564 45.682,177.826 46.713 C 178.077 47.699,178.221 47.867,178.405 47.388 C 178.542 47.029,178.535 35.536,178.395 33.652 C 178.290 32.229,178.293 32.218,178.798 31.652 L 179.306 31.083 182.861 30.977 C 186.629 30.865,188.779 30.671,191.296 30.217 L 192.841 29.937 193.629 30.325 C 194.848 30.925,198.803 31.129,201.652 30.739 C 207.199 29.979,207.624 30.213,206.820 33.583 C 206.325 35.662,206.363 39.777,206.888 40.913 L 207.272 41.743 208.235 40.832 L 209.198 39.922 209.081 37.506 L 208.964 35.090 208.242 33.836 C 206.609 31.004,207.624 30.408,213.102 30.985 C 214.008 31.080,215.387 31.143,216.167 31.125 C 219.850 31.036,220.493 31.464,221.230 34.500 C 221.486 35.554,221.809 36.689,221.948 37.022 C 222.173 37.563,222.173 37.670,221.945 38.022 C 221.806 38.239,221.567 38.901,221.415 39.493 C 221.095 40.743,220.780 41.418,220.246 42.000 L 219.864 42.417 220.181 43.667 C 220.355 44.354,220.573 45.067,220.665 45.250 C 221.097 46.117,221.360 47.204,221.450 48.500 C 221.601 50.685,221.665 50.775,222.497 49.984 C 222.874 49.625,223.477 49.182,223.839 48.997 C 224.731 48.542,225.102 47.748,225.316 45.832 C 225.523 43.978,226.139 42.548,226.884 42.195 C 227.494 41.906,227.589 41.614,227.808 39.375 C 228.001 37.398,228.230 36.741,229.013 35.915 C 229.275 35.638,229.772 34.953,230.119 34.391 C 231.044 32.894,231.551 32.372,232.516 31.925 C 233.364 31.532,233.700 31.434,237.117 30.587 L 238.817 30.165 239.726 30.505 C 241.716 31.250,242.192 31.850,242.668 34.213 C 243.034 36.036,243.205 36.478,243.942 37.512 C 244.504 38.300,244.928 39.657,245.385 42.125 C 245.525 42.882,245.777 43.757,245.945 44.070 C 246.113 44.383,246.453 45.012,246.701 45.466 C 246.975 45.969,247.289 47.001,247.502 48.105 C 247.849 49.904,248.315 51.500,248.491 51.500 C 248.781 51.499,249.581 49.801,249.849 48.618 C 250.119 47.424,250.159 46.483,250.162 41.218 L 250.167 35.185 249.583 33.905 C 249.149 32.953,249.000 32.397,249.000 31.735 C 249.000 31.016,248.936 30.811,248.667 30.667 C 248.267 30.453,248.228 30.167,248.599 30.167 C 248.745 30.167,248.901 30.307,248.946 30.478 C 249.015 30.743,249.194 30.790,250.139 30.790 C 250.750 30.790,252.862 30.811,254.833 30.835 C 257.652 30.871,258.642 30.824,259.474 30.618 C 262.569 29.850,263.955 30.861,264.762 34.477 C 264.966 35.393,265.174 35.859,265.579 36.311 C 266.251 37.060,266.754 38.036,267.019 39.103 C 267.566 41.304,268.698 41.146,269.159 38.804 C 269.355 37.808,269.998 36.290,270.305 36.101 C 270.384 36.052,270.737 35.519,271.089 34.918 C 272.760 32.060,274.200 31.383,279.788 30.830 C 281.572 30.653,283.476 30.384,284.019 30.231 C 284.990 29.959,285.036 29.962,286.893 30.407 C 290.204 31.202,295.351 31.018,298.208 30.002 C 299.285 29.619,299.115 29.630,300.551 29.849 M351.625 30.337 C 352.409 30.610,352.729 30.624,354.708 30.475 C 360.000 30.075,360.100 30.148,359.419 33.917 C 359.287 34.650,359.176 35.836,359.172 36.553 C 359.166 37.938,359.045 38.313,358.365 39.042 C 357.522 39.946,356.513 39.343,355.820 37.521 C 355.590 36.915,355.184 36.236,354.875 35.942 C 354.577 35.659,354.333 35.338,354.333 35.229 C 354.333 34.926,352.824 33.738,352.167 33.524 C 351.308 33.243,350.500 32.708,350.500 32.419 C 350.500 32.050,350.278 32.113,350.063 32.543 C 349.960 32.749,349.640 33.341,349.351 33.859 C 348.841 34.773,348.823 34.880,348.722 37.442 L 348.618 40.084 349.309 40.708 C 350.406 41.699,350.861 41.346,351.512 38.997 C 352.461 35.571,353.762 36.297,354.188 40.491 C 354.661 45.155,354.214 49.104,353.093 50.157 L 352.714 50.514 352.197 49.926 C 351.744 49.410,351.167 47.994,351.167 47.399 C 351.167 46.345,349.925 46.070,349.131 46.948 C 348.629 47.502,348.672 54.390,349.181 54.932 C 349.879 55.674,351.900 55.569,353.064 54.729 C 353.349 54.523,353.917 54.143,354.324 53.885 C 355.467 53.162,356.273 52.267,356.573 51.386 C 357.163 49.659,357.326 49.485,358.674 49.143 C 360.119 48.776,360.127 48.781,360.439 50.270 C 360.927 52.598,362.113 52.885,363.333 50.971 C 363.746 50.324,364.467 49.465,364.937 49.062 C 365.668 48.434,365.831 48.181,366.075 47.290 C 366.232 46.718,366.511 45.931,366.695 45.542 L 367.030 44.833 366.600 44.322 C 366.363 44.041,366.046 43.385,365.896 42.864 C 365.472 41.396,364.926 40.296,364.356 39.762 C 364.027 39.453,363.647 38.774,363.324 37.917 C 363.021 37.116,362.570 36.292,362.221 35.905 C 361.503 35.108,360.499 32.985,360.502 32.271 C 360.510 30.748,360.892 30.644,365.678 30.871 C 369.639 31.059,371.331 30.904,373.488 30.158 C 375.384 29.502,375.879 29.914,376.260 32.465 C 376.653 35.093,376.681 35.181,377.317 35.837 C 377.650 36.180,378.030 36.675,378.162 36.938 C 379.024 38.662,379.822 38.685,380.416 37.003 C 380.557 36.602,380.867 36.019,381.104 35.708 L 381.534 35.144 380.998 34.055 C 379.932 31.889,380.833 30.535,383.357 30.509 C 383.875 30.504,384.810 30.342,385.436 30.149 C 386.595 29.791,388.648 29.806,389.094 30.175 C 389.937 30.875,388.633 33.797,387.299 34.197 C 386.573 34.414,386.225 34.756,385.744 35.723 C 385.527 36.157,385.090 36.624,384.574 36.972 C 384.121 37.277,383.623 37.772,383.467 38.072 C 383.186 38.613,382.117 39.667,381.848 39.667 C 381.671 39.667,381.416 40.311,381.109 41.532 C 380.830 42.640,381.157 43.602,382.244 44.872 C 382.614 45.304,382.982 46.037,383.259 46.893 C 383.798 48.556,384.065 49.086,384.752 49.852 C 385.049 50.184,385.424 50.859,385.585 51.352 C 385.999 52.616,386.393 53.344,386.951 53.874 C 387.881 54.757,388.787 56.923,388.406 57.351 C 387.569 58.292,387.290 58.326,380.410 58.330 C 371.572 58.335,370.493 58.010,371.833 55.750 C 372.463 54.689,372.456 54.518,371.762 53.845 C 371.363 53.458,370.976 52.746,370.475 51.475 C 370.016 50.309,369.686 49.687,369.555 49.738 C 369.443 49.781,368.777 50.020,368.076 50.269 C 365.944 51.025,365.747 53.259,367.594 55.716 C 368.465 56.875,368.478 56.965,367.862 57.556 C 367.038 58.346,366.498 58.371,351.417 58.344 C 336.097 58.315,334.667 58.232,333.552 57.307 C 333.206 57.020,331.302 57.242,329.583 57.769 C 326.470 58.724,315.233 58.517,313.542 57.474 C 312.849 57.046,312.860 56.929,313.647 56.373 C 314.004 56.122,314.472 55.659,314.689 55.345 L 315.083 54.773 315.083 44.928 C 315.083 35.342,315.075 35.072,314.750 34.641 C 314.042 33.702,313.948 33.720,312.527 35.078 C 311.191 36.355,310.886 36.856,310.418 38.553 C 310.252 39.156,309.943 39.749,309.600 40.123 L 309.049 40.724 308.436 40.345 C 306.378 39.073,306.480 32.436,308.580 31.019 L 309.169 30.622 315.592 30.816 C 319.124 30.923,322.100 30.958,322.204 30.893 C 322.309 30.829,324.124 30.762,326.239 30.745 C 328.353 30.728,331.285 30.655,332.753 30.583 C 334.633 30.491,335.763 30.512,336.577 30.653 C 339.203 31.111,343.811 30.849,347.299 30.043 C 348.192 29.837,350.673 30.005,351.625 30.337 M102.938 31.632 C 102.123 32.950,101.639 39.290,102.256 40.558 C 102.860 41.801,102.917 41.817,103.765 40.992 C 104.185 40.584,104.709 39.898,104.929 39.467 C 105.242 38.857,105.496 38.610,106.079 38.352 C 107.719 37.627,108.333 36.848,108.333 35.496 C 108.333 34.721,108.232 34.638,106.495 34.007 C 104.476 33.273,103.825 32.861,103.603 32.179 C 103.416 31.605,103.110 31.354,102.938 31.632 M22.393 31.987 C 21.738 32.387,21.716 32.424,21.256 33.914 L 20.877 35.142 22.368 36.096 C 23.188 36.621,23.965 37.212,24.094 37.410 C 24.370 37.830,25.282 38.350,26.303 38.669 C 26.698 38.793,27.336 39.166,27.719 39.499 C 28.103 39.832,28.994 40.505,29.699 40.993 C 30.792 41.750,31.111 42.090,31.862 43.296 L 32.742 44.710 33.213 43.730 C 34.352 41.362,32.905 37.693,30.444 36.708 C 29.978 36.522,29.638 36.200,29.229 35.562 C 28.481 34.392,28.096 34.054,27.361 33.921 C 26.358 33.739,25.061 33.069,24.659 32.525 C 24.040 31.688,23.207 31.491,22.393 31.987 M163.165 33.452 C 162.355 35.038,162.533 41.569,163.418 42.780 C 163.712 43.182,163.769 43.103,164.388 41.433 L 164.918 40.000 164.791 37.708 C 164.657 35.276,164.335 33.660,163.861 33.035 L 163.572 32.654 163.165 33.452 M77.885 33.199 C 76.242 33.823,76.279 33.742,76.135 37.084 C 76.032 39.475,76.052 40.136,76.245 40.598 L 76.483 41.167 77.700 41.165 C 79.154 41.162,79.461 40.850,79.821 39.002 C 80.164 37.246,80.723 36.500,81.698 36.500 C 82.192 36.500,82.500 36.110,82.500 35.485 C 82.500 35.044,81.290 33.833,80.850 33.833 C 80.683 33.833,80.128 33.622,79.616 33.364 L 78.686 32.894 77.885 33.199 M192.438 33.361 C 191.676 34.523,191.667 34.668,191.667 44.906 L 191.667 54.604 192.170 55.087 L 192.674 55.569 193.128 55.114 L 193.583 54.659 193.631 44.975 C 193.682 34.759,193.658 34.369,192.907 33.275 C 192.705 32.981,192.684 32.985,192.438 33.361 M88.271 34.029 C 88.214 34.334,88.126 35.371,88.076 36.333 C 87.907 39.593,86.079 40.254,84.422 37.654 C 83.903 36.839,83.713 36.667,83.334 36.667 C 82.551 36.667,82.501 36.879,82.671 39.508 C 82.910 43.211,82.872 47.756,82.594 48.802 C 81.904 51.395,80.499 51.266,79.670 48.535 C 79.091 46.625,79.135 46.667,77.656 46.667 C 76.050 46.667,76.167 46.327,76.167 50.993 C 76.167 55.325,76.069 55.048,77.702 55.349 C 79.196 55.624,80.687 55.171,81.843 54.091 C 82.267 53.694,82.870 53.237,83.182 53.076 C 83.914 52.699,84.157 52.346,84.671 50.913 C 84.903 50.267,85.295 49.393,85.543 48.970 L 85.994 48.201 86.685 48.356 C 87.558 48.552,87.920 48.746,88.225 49.182 C 88.761 49.946,88.966 46.726,88.844 39.467 C 88.753 34.058,88.578 32.393,88.271 34.029 M284.773 34.582 C 284.544 35.179,284.652 54.833,284.885 54.833 C 285.780 54.833,285.751 55.179,285.741 44.758 L 285.733 35.157 285.306 34.731 C 284.935 34.359,284.866 34.340,284.773 34.582 M328.707 34.672 L 328.331 34.824 328.374 44.936 L 328.417 55.049 329.667 55.848 C 331.930 57.293,333.624 57.006,334.887 54.964 C 335.197 54.462,335.292 44.483,335.003 42.750 C 334.559 40.087,334.021 38.744,332.890 37.470 C 332.466 36.993,331.971 36.261,331.789 35.843 C 331.210 34.510,330.131 34.100,328.707 34.672 M129.107 39.712 C 128.912 39.854,128.734 40.413,128.562 41.420 C 128.421 42.243,128.127 43.367,127.909 43.917 C 127.417 45.157,126.968 47.057,127.091 47.378 C 127.386 48.146,132.020 48.246,132.218 47.488 C 132.382 46.863,132.038 45.041,131.619 44.311 C 131.389 43.911,130.955 42.758,130.654 41.750 C 129.956 39.407,129.802 39.204,129.107 39.712 M230.329 41.760 C 229.736 42.254,229.153 42.661,229.034 42.663 C 227.818 42.684,227.667 45.626,228.784 47.538 C 229.217 48.281,231.189 48.436,231.808 47.777 C 232.621 46.912,232.665 44.022,231.900 41.777 C 231.545 40.734,231.560 40.734,230.329 41.760 M163.089 46.455 C 162.667 47.076,162.667 47.085,162.667 50.869 L 162.667 54.661 163.125 55.175 L 163.584 55.688 164.032 55.219 C 164.993 54.215,165.110 47.917,164.194 46.505 C 163.661 45.682,163.616 45.680,163.089 46.455 M397.483 48.756 C 397.767 49.080,398.000 49.436,397.999 49.547 C 397.999 49.659,397.855 49.515,397.680 49.228 C 397.505 48.941,397.189 48.584,396.977 48.436 C 396.766 48.288,396.676 48.167,396.779 48.167 C 396.882 48.167,397.198 48.432,397.483 48.756 M32.418 53.500 C 32.080 54.493,32.061 55.088,32.354 55.441 C 32.970 56.184,33.436 54.878,33.028 53.554 L 32.729 52.583 32.418 53.500 M177.992 53.939 C 177.814 54.405,177.919 55.000,178.178 55.000 C 178.263 55.000,178.333 54.663,178.333 54.250 C 178.333 53.397,178.233 53.305,177.992 53.939 M308.717 68.000 C 308.812 68.000,308.845 68.043,308.792 68.097 C 308.654 68.235,307.881 67.697,307.758 67.378 C 307.702 67.231,307.855 67.310,308.100 67.555 C 308.345 67.800,308.623 68.000,308.717 68.000 M307.833 67.917 L 308.250 68.417 307.792 68.013 C 307.540 67.790,307.333 67.534,307.333 67.443 C 307.333 67.352,307.352 67.309,307.375 67.347 C 307.398 67.385,307.604 67.642,307.833 67.917 " stroke="none" fill="#efe100" fill-rule="evenodd"></path></g></svg>